<svg width="500" height="500" viewBox="0 0 500 500" fill="none" xmlns="http://www.w3.org/2000/svg">
<path d="M445.929 67.3599H87.4795V126.64H445.929V67.3599Z" fill="#A5A5A5"/>
<path d="M445.929 126.59H87.4795V361.37H445.929V126.59Z" fill="#E6E6E6"/>
<g opacity="0.08">
<path d="M432.24 309.34L404.93 348.17H430.63V361.37H445.93L444.96 314.01L432.24 309.34Z" fill="#000001"/>
</g>
<g opacity="0.08">
<path d="M91.9698 186.63C91.9698 186.63 99.3998 181.62 102.87 200C106.35 218.38 96.1398 234 120.58 237.78C145.02 241.56 160.99 231.24 166.62 260.57C172.25 289.9 203.99 303.16 193.14 329.68C182.29 356.2 173.25 361.37 173.25 361.37H87.4698C87.4698 361.37 86.8198 197.08 91.9598 186.63H91.9698Z" fill="#000001"/>
</g>
<path d="M118.04 107.28C122.745 107.28 126.56 103.465 126.56 98.7598C126.56 94.0543 122.745 90.2397 118.04 90.2397C113.334 90.2397 109.52 94.0543 109.52 98.7598C109.52 103.465 113.334 107.28 118.04 107.28Z" fill="#24285B"/>
<path d="M143.39 107.28C148.096 107.28 151.91 103.465 151.91 98.7598C151.91 94.0543 148.096 90.2397 143.39 90.2397C138.685 90.2397 134.87 94.0543 134.87 98.7598C134.87 103.465 138.685 107.28 143.39 107.28Z" fill="#6C63FF"/>
<path d="M167.28 107.28C171.985 107.28 175.8 103.465 175.8 98.7598C175.8 94.0543 171.985 90.2397 167.28 90.2397C162.574 90.2397 158.76 94.0543 158.76 98.7598C158.76 103.465 162.574 107.28 167.28 107.28Z" fill="#FFD200"/>
<path d="M163.73 224.2C161.78 222.25 161.78 219.1 163.73 217.15L193.46 187.42C195.41 185.47 198.56 185.47 200.51 187.42C202.46 189.37 202.46 192.52 200.51 194.47L170.78 224.2C168.83 226.15 165.68 226.15 163.73 224.2Z" fill="white"/>
<path d="M193.94 224.68L164.21 194.95C162.26 193 162.26 189.85 164.21 187.9C166.16 185.95 169.31 185.95 171.26 187.9L200.99 217.63C202.94 219.58 202.94 222.73 200.99 224.68C199.04 226.63 195.89 226.63 193.94 224.68Z" fill="white"/>
<path d="M328.61 224.2C326.66 222.25 326.66 219.1 328.61 217.15L358.34 187.42C360.29 185.47 363.44 185.47 365.39 187.42C367.34 189.37 367.34 192.52 365.39 194.47L335.66 224.2C333.71 226.15 330.56 226.15 328.61 224.2Z" fill="white"/>
<path d="M358.819 224.68L329.089 194.95C327.139 193 327.139 189.85 329.089 187.9C331.039 185.95 334.189 185.95 336.139 187.9L365.869 217.63C367.819 219.58 367.819 222.73 365.869 224.68C363.919 226.63 360.769 226.63 358.819 224.68Z" fill="white"/>
<path d="M225.159 309.34C222.589 309.34 220.409 307.37 220.199 304.76C218.809 287.77 225.249 254.37 259.539 249.52C270.239 248.01 279.199 250.47 286.129 256.84C302.419 271.83 300.819 303.31 300.749 304.64C300.589 307.39 298.259 309.5 295.489 309.33C292.739 309.17 290.639 306.82 290.799 304.07C290.819 303.79 292.199 275.94 279.379 264.17C274.689 259.86 268.659 258.3 260.949 259.39C227.289 264.15 230.019 302.33 230.149 303.95C230.369 306.69 228.329 309.1 225.589 309.33C225.449 309.33 225.319 309.35 225.179 309.35L225.159 309.34Z" fill="white"/>
<g opacity="0.08">
<path d="M445.93 142.92H374.28V167.61H445.93V142.92Z" fill="#000001"/>
</g>
<g opacity="0.03">
<path d="M106.3 468.44C157.795 468.44 199.54 462.463 199.54 455.09C199.54 447.717 157.795 441.74 106.3 441.74C54.8045 441.74 13.0596 447.717 13.0596 455.09C13.0596 462.463 54.8045 468.44 106.3 468.44Z" fill="#000001"/>
</g>
<path d="M47.9793 442.71C47.9793 442.71 46.0493 448.08 41.1893 448.5C36.3293 448.91 35.0593 453.66 39.4293 454.9C43.7993 456.14 55.0593 450.52 55.0593 450.52L54.7393 443.51L47.9793 442.71Z" fill="#6C63FF"/>
<path d="M114.71 442.71C114.71 442.71 116.64 448.08 121.5 448.5C126.36 448.91 127.63 453.66 123.26 454.9C118.89 456.14 107.63 450.52 107.63 450.52L107.95 443.51L114.71 442.71Z" fill="#6C63FF"/>
<path d="M120.93 227.66C120.93 227.66 155.59 234.66 152.71 266.93C149.83 299.2 181.34 316.95 162.04 335.62C142.74 354.28 117.04 343.79 117.04 343.79L120.94 227.67L120.93 227.66Z" fill="#6C63FF"/>
<g opacity="0.39">
<path d="M120.93 227.66C120.93 227.66 155.59 234.66 152.71 266.93C149.83 299.2 181.34 316.95 162.04 335.62C142.74 354.28 117.04 343.79 117.04 343.79L120.94 227.67L120.93 227.66Z" fill="white"/>
</g>
<path d="M92.2696 195.65C92.2696 195.65 94.9296 202.42 95.1296 207.38C95.2096 209.39 93.6196 211.12 91.5996 211.17C89.0996 211.23 85.6996 210.59 83.8296 207.14L79.9496 201.67C79.9496 201.67 77.6396 198.16 80.7296 194.17C83.8196 190.18 90.8596 191.45 92.2696 195.65Z" fill="#F4A28C"/>
<path d="M81.6992 203.04L82.0092 226.86L95.1192 225.75L89.6292 208.87L81.6992 203.04Z" fill="#F4A28C"/>
<path d="M80.6501 207.33C80.7401 207.63 81.0201 207.83 81.3401 207.82C82.4701 207.77 85.0301 207.3 85.9501 204.23C87.1401 200.24 84.0601 197.85 84.0601 197.85C87.2001 197.52 89.4301 196.87 90.6301 196.44C91.3501 196.19 92.0301 195.86 92.6301 195.39L92.8801 189.63C92.8801 189.63 94.2001 183.55 90.7901 183.33C87.3701 183.1 86.9501 187.04 83.7101 185.23C80.4701 183.42 79.6301 182.63 77.4301 184.77C75.2301 186.9 78.7701 188.1 74.5301 189.3C70.2901 190.5 70.7001 192.27 71.2201 194.22C71.3501 194.71 71.8601 195.24 72.5401 195.76C76.3901 198.71 79.3401 202.67 80.6601 207.34L80.6501 207.33Z" fill="#24285B"/>
<path d="M86.6294 203.81C86.6294 203.81 85.7794 201.14 83.8294 201.95C81.8794 202.75 83.0694 206.61 85.9194 206.17L86.6294 203.82V203.81Z" fill="#F4A28C"/>
<path d="M93.7295 200L96.4695 202.11C97.1495 202.63 97.0495 203.68 96.2895 204.07L93.7695 205.36L93.7295 200Z" fill="#F4A28C"/>
<g opacity="0.31">
<path d="M90.32 211.13C90.32 211.13 88.64 211.29 85.04 209.44C85.04 209.44 85.85 214.12 91.98 216.08L90.33 211.13H90.32Z" fill="#CE8172"/>
</g>
<path d="M106.76 224.55C90.2499 224.83 67.9799 227.73 43.9099 237.99C31.0399 243.47 25.3999 258.64 31.6699 271.15L65.8699 339.36L129.27 335.61C129.27 335.61 140.81 297.28 138.49 253.9C137.6 237.18 123.49 224.26 106.75 224.55H106.76Z" fill="#6C63FF"/>
<path d="M65.8699 339.36L46.9199 443.68H56.3899L80.1399 387.04C88.5499 366.98 103.38 350.28 122.3 339.56L129.27 335.61L65.8699 339.36Z" fill="#24285B"/>
<g opacity="0.08">
<path d="M60.6399 247.05C60.6399 247.05 75.5899 258.11 72.7099 277.86C69.8199 297.61 66.8499 312.96 85.0399 308.37C103.23 303.78 113.1 261.42 113.1 261.42L134.35 261.94L130.68 309.19L118.36 310.04C112.37 310.45 107.39 314.82 106.21 320.71L102.89 337.18L65.8799 339.37L60.6399 331.59L37.5599 306.54L34.6699 266.67L60.6399 247.06V247.05Z" fill="#000001"/>
</g>
<path d="M85.7469 302.573L126.832 305.367L130.658 249.097L89.5732 246.303L85.7469 302.573Z" fill="#FFD200"/>
<path d="M129.28 335.61L119.49 443.68H106.9C106.9 443.68 109.84 362.36 87.1201 345.05L129.27 335.61H129.28Z" fill="#24285B"/>
<path d="M62.0497 253.17C61.5497 238.65 43.3797 232.71 34.4097 244.14C27.1397 253.42 20.4397 268.9 20.9897 294.34C22.1697 348.64 54.0397 363.2 103.22 303.78L93.5397 296.3C93.5397 296.3 74.1597 312.73 56.4297 312.98C43.2297 313.16 62.9497 279.08 62.0497 253.17Z" fill="#6C63FF"/>
<g opacity="0.39">
<path d="M62.0497 253.17C61.5497 238.65 43.3797 232.71 34.4097 244.14C27.1397 253.42 20.4397 268.9 20.9897 294.34C22.1697 348.64 54.0397 363.2 103.22 303.78L93.5397 296.3C93.5397 296.3 74.1597 312.73 56.4297 312.98C43.2297 313.16 62.9497 279.08 62.0497 253.17Z" fill="white"/>
</g>
<g opacity="0.08">
<path d="M128.91 274.81C128.91 274.81 114.81 300.82 86.37 293.48L85.75 302.58L126.83 305.37L128.91 274.81Z" fill="#000001"/>
</g>
<path d="M95.3193 297.67C95.3193 297.67 101.109 287.45 108.199 290.15C115.289 292.85 103.229 303.78 103.229 303.78L95.3193 297.67Z" fill="#F4A28C"/>
<g opacity="0.58">
<path d="M159.12 438.1C159.12 438.1 145.72 434.44 142.8 421.97C142.8 421.97 163.56 417.77 164.16 439.21L159.12 438.11V438.1Z" fill="#6C63FF"/>
</g>
<g opacity="0.73">
<path d="M160.76 436.78C160.76 436.78 151.4 421.98 159.64 408.14C159.64 408.14 175.43 418.17 168.41 436.81L160.76 436.78Z" fill="#6C63FF"/>
</g>
<path d="M163.18 436.79C163.18 436.79 168.13 421.16 183.08 418.2C183.08 418.2 185.88 428.35 173.4 436.84L163.18 436.8V436.79Z" fill="#6C63FF"/>
<path d="M153.46 436.43L156.17 455.02L173.28 455.09L175.81 436.53L153.46 436.43Z" fill="#24285B"/>
<g opacity="0.45">
<path d="M446.08 463.48C467.171 463.48 484.27 459.724 484.27 455.09C484.27 450.457 467.171 446.7 446.08 446.7C424.988 446.7 407.89 450.457 407.89 455.09C407.89 459.724 424.988 463.48 446.08 463.48Z" fill="#E6E6E6"/>
</g>
<path d="M450.05 327.94H439.87V430.42H450.05V327.94Z" fill="#E6E6E6"/>
<path d="M445.93 273.97L404.93 336.78H445.93H486.94L445.93 273.97Z" fill="#FFD200"/>
<path d="M460.37 421.64H430.63V455.09H460.37V421.64Z" fill="#24285B"/>
<path d="M448.519 297.34H442.689V316.23H448.519V297.34Z" fill="#24285B"/>
<path d="M448.519 319.9H442.689V325.73H448.519V319.9Z" fill="#24285B"/>
</svg>
