<svg version="1.1" id="Layer_1" xmlns="http://www.w3.org/2000/svg" xmlns:xlink="http://www.w3.org/1999/xlink" x="0px" y="0px" viewBox="0 0 500 500" style="width: 215px;" xml:space="preserve" data-imageid="credit-card-1-84" imageName="Credit Card 1" class="illustrations_image">
<style type="text/css">
	.st0_credit-card-1-84{fill:#68E1FD;}
	.st1_credit-card-1-84{fill:#231F20;}
	.st2_credit-card-1-84{fill:#FFFFFF;}
	.st3_credit-card-1-84{fill:#D1D3D4;}
</style>
<g id="Card_2_credit-card-1-84">
	<path class="st0_credit-card-1-84 targetColor" d="M216.3,141.8c4.9-2.9,12.9-2.9,17.8,0l222.7,128.6c4.9,2.9,5,7.5,0.1,10.3l-133.5,77.6&#10;&#9;&#9;c-4.9,2.9-12.9,2.8-17.8,0L82.8,229.7c-4.9-2.9-5-7.4-0.1-10.3L216.3,141.8z" style="fill: rgb(108, 99, 255);"/>
	<path class="st1_credit-card-1-84" d="M314.4,361.6c-3.3,0.1-6.6-0.7-9.5-2.3L82.2,230.8c-2.8-1.6-4.3-3.8-4.3-6.3s1.5-4.6,4.3-6.2l133.6-77.6l0,0&#10;&#9;&#9;c5.3-3.1,13.7-3.1,19.1,0l222.7,128.5c2.8,1.6,4.3,3.8,4.4,6.3s-1.5,4.6-4.3,6.2l-133.5,77.6C321,360.9,317.7,361.7,314.4,361.6z&#10;&#9;&#9; M216.9,142.9L83.3,220.5c-1.9,1.1-3,2.6-3,4s1.1,2.9,3.1,4.1l222.6,128.6c4.6,2.6,12,2.6,16.5,0l133.6-77.6c2-1.1,3-2.6,3-4&#10;&#9;&#9;s-1.1-2.9-3.1-4.1L233.4,142.9C228.9,140.2,221.4,140.2,216.9,142.9z"/>
</g>
<g id="Card_1_credit-card-1-84">
	<path class="st2_credit-card-1-84" d="M176.4,141.8c4.9-2.9,12.9-2.9,17.8,0l222.7,128.6c4.9,2.9,5,7.5,0.1,10.3l-133.5,77.6&#10;&#9;&#9;c-4.9,2.9-12.9,2.8-17.8,0L42.9,229.7c-4.9-2.9-5-7.4-0.1-10.3L176.4,141.8z"/>
	<path class="st1_credit-card-1-84" d="M274.5,361.2c-3.3,0.1-6.5-0.7-9.4-2.2L42.5,230.4c-2.7-1.6-4.2-3.7-4.2-5.9s1.5-4.4,4.1-5.9L175.9,141&#10;&#9;&#9;c5.1-3,13.5-3,18.7,0l222.7,128.5c2.7,1.5,4.2,3.7,4.2,5.9s-1.5,4.4-4.1,5.9L283.8,359C280.9,360.5,277.7,361.3,274.5,361.2z&#10;&#9;&#9; M176.4,141.8l0.4,0.8L43.3,220.1c-2.1,1.2-3.2,2.8-3.2,4.4s1.2,3.2,3.3,4.4L266,357.5c4.7,2.7,12.3,2.7,16.9,0l133.6-77.6&#10;&#9;&#9;c2.1-1.2,3.2-2.8,3.2-4.4s-1.2-3.2-3.3-4.4L193.7,142.5c-4.7-2.7-12.2-2.7-16.9,0L176.4,141.8z"/>
	<path class="st3_credit-card-1-84" d="M164,220.3c-2.4,0-4.7-0.5-6.8-1.6l-19.9-11.5c-1.9-1.1-3-2.6-3.1-4.3c0-1.7,0.8-3.3,2.3-4.2l0.8-0.5l15.8-9.1&#10;&#9;&#9;c4.1-1.8,8.9-1.7,12.9,0.4l19.9,11.5c1.9,1.1,3,2.6,3.1,4.3c0,1.7-0.9,3.3-2.3,4.2l-16.5,9.5C168.2,219.9,166.1,220.3,164,220.3z&#10;&#9;&#9; M159.1,189.7c-1.8,0-3.6,0.3-5.2,1.1l-0.6,0.3l-15.7,9.1c-0.9,0.6-1.4,1.5-1.4,2.6c0.2,1.2,1,2.3,2.2,2.8l19.9,11.5&#10;&#9;&#9;c3.5,1.7,7.5,1.9,11.1,0.4l1.3-0.7l13.8-8l0,0l1.3-0.8c0.9-0.6,1.5-1.5,1.5-2.6c-0.2-1.2-1-2.3-2.2-2.8L165,191.1&#10;&#9;&#9;C163.2,190.1,161.2,189.6,159.1,189.7L159.1,189.7z"/>
	<path class="st3_credit-card-1-84" d="M170.3,218.8c-0.2,0-0.3,0-0.5-0.1l-32.5-18.8c-0.4-0.3-0.6-0.8-0.3-1.3c0,0,0,0,0,0c0.3-0.4,0.8-0.6,1.2-0.3&#10;&#9;&#9;c0,0,0,0,0,0l32.5,18.8c0.4,0.3,0.6,0.8,0.3,1.3C170.9,218.6,170.6,218.8,170.3,218.8L170.3,218.8z"/>
	<path class="st3_credit-card-1-84" d="M142.3,209.9c-0.5,0-0.9-0.4-0.9-0.9c0-0.3,0.2-0.6,0.5-0.8l27.9-16c0.4-0.3,1-0.1,1.3,0.3&#10;&#9;&#9;c0.3,0.4,0.1,1-0.3,1.3l0,0l-27.9,16C142.6,209.9,142.4,209.9,142.3,209.9z"/>
	<path class="st3_credit-card-1-84" d="M153.2,216.2c-0.3,0-0.6-0.2-0.8-0.4c-0.3-0.4-0.1-1,0.3-1.3c0,0,0,0,0,0l27.4-16.2c0.4-0.3,1-0.1,1.3,0.3&#10;&#9;&#9;s0.1,1-0.3,1.3l-27.4,16.2C153.6,216.1,153.4,216.2,153.2,216.2z"/>
	<path class="st3_credit-card-1-84" d="M185.4,209.9c-0.2,0-0.3,0-0.5-0.1l-32.6-18.7c-0.5-0.2-0.6-0.8-0.4-1.2c0.2-0.5,0.8-0.6,1.2-0.4&#10;&#9;&#9;c0,0,0.1,0,0.1,0.1l32.6,18.7c0.4,0.3,0.6,0.8,0.3,1.3C186.1,209.7,185.7,209.9,185.4,209.9L185.4,209.9z"/>
	<path class="st3_credit-card-1-84" d="M180.6,212.5c-0.2,0-0.3,0-0.4-0.1l-11-6.2c-0.4-0.2-0.6-0.8-0.4-1.3c0.2-0.4,0.8-0.6,1.3-0.4l11,6.2&#10;&#9;&#9;c0.4,0.3,0.6,0.8,0.3,1.3C181.3,212.3,181,212.5,180.6,212.5z"/>
	<path class="st3_credit-card-1-84" d="M175.1,216c-0.2,0-0.3,0-0.5-0.1l-10.9-6.4c-0.4-0.3-0.6-0.8-0.3-1.3s0.8-0.6,1.3-0.3l0,0l10.9,6.4&#10;&#9;&#9;c0.4,0.3,0.6,0.8,0.3,1.3C175.8,215.8,175.5,216,175.1,216z"/>
	<path class="st3_credit-card-1-84" d="M152.8,203.2c-0.2,0-0.3,0-0.5-0.1l-10.2-6c-0.4-0.3-0.6-0.8-0.3-1.3s0.8-0.6,1.3-0.3l10.2,6.1&#10;&#9;&#9;c0.4,0.3,0.6,0.8,0.3,1.3C153.4,203,153.1,203.2,152.8,203.2L152.8,203.2z"/>
	<path class="st3_credit-card-1-84" d="M158.4,199.9c-0.2,0-0.3,0-0.5-0.1l-10.2-6.1c-0.4-0.3-0.6-0.8-0.3-1.3s0.8-0.6,1.3-0.3l10.2,6.1&#10;&#9;&#9;c0.4,0.3,0.6,0.8,0.3,1.3C159,199.8,158.7,199.9,158.4,199.9z"/>
	<polygon class="st1_credit-card-1-84" points="406.9,286.2 389.8,296.2 149.4,157.4 166.6,147.5 &#9;"/>
	<path class="st0_credit-card-1-84 targetColor" d="M158.5,236.2l-1.2,0.7c-2.5,1.4-2.5,3.8,0,5.2l22.5,13c2.8,1.4,6.2,1.4,9,0l1.2-0.7c2.5-1.4,2.5-3.8,0-5.2&#10;&#9;&#9;l-22.5-13C164.7,234.8,161.3,234.8,158.5,236.2 M243.5,285.3l-1.2,0.7c-2.5,1.4-2.5,3.8,0,5.2l22.5,13c2.8,1.4,6.2,1.4,9,0l1.2-0.7&#10;&#9;&#9;c2.5-1.5,2.5-3.8,0-5.2l-22.5-13C249.7,283.8,246.3,283.8,243.5,285.3 M114.8,212.4c-2.5,1.4-2.5,3.8,0,5.2l22.5,13&#10;&#9;&#9;c2.8,1.4,6.2,1.4,9,0l1.2-0.7c2.5-1.4,2.5-3.8,0-5.2l-22.5-13c-2.8-1.4-6.2-1.4-9,0L114.8,212.4 M201,260.7l-1.2,0.7&#10;&#9;&#9;c-2.5,1.4-2.5,3.8,0,5.2l22.5,13c2.8,1.4,6.2,1.4,9,0l1.2-0.7c2.5-1.4,2.5-3.8,0-5.2l-22.5-13C207.2,259.3,203.8,259.3,201,260.7&#10;&#9;&#9; M153.8,263.2c0.6,0.3,1.2,0.3,1.8,0c0.3-0.1,0.4-0.4,0.3-0.7c-0.1-0.1-0.2-0.2-0.3-0.3l-63.5-36.7c-0.6-0.3-1.2-0.3-1.8,0&#10;&#9;&#9;c-0.3,0.1-0.4,0.4-0.3,0.7c0.1,0.1,0.2,0.2,0.3,0.3L153.8,263.2 M176.6,283.4c0.4,0.2,0.8,0.3,1.2,0.2l17.9-2.5&#10;&#9;&#9;c0.7-0.1,1.1-0.5,0.9-0.9c-0.1-0.1-0.2-0.3-0.3-0.3c-0.4-0.2-0.8-0.3-1.2-0.2l-17.9,2.5c-0.7,0.1-1.1,0.5-0.9,0.9&#10;&#9;&#9;C176.4,283.2,176.5,283.3,176.6,283.4 M200.9,290.4c0.6,0.3,1.2,0.3,1.8,0c0.5-0.3,0.5-0.8,0-1l-9.8-5.7c-0.6-0.3-1.2-0.3-1.8,0&#10;&#9;&#9;c-0.5,0.3-0.5,0.7,0,1L200.9,290.4 M172.5,272c-0.6-0.3-1.2-0.3-1.8,0c-0.5,0.3-0.5,0.7,0,1l9.8,5.7c0.6,0.3,1.2,0.3,1.8,0&#10;&#9;&#9;c0.3-0.1,0.4-0.5,0.3-0.7c-0.1-0.1-0.2-0.2-0.3-0.3L172.5,272" style="fill: rgb(108, 99, 255);"/>
</g>
</svg>