<svg version="1.1" id="Layer_1" xmlns="http://www.w3.org/2000/svg" xmlns:xlink="http://www.w3.org/1999/xlink" x="0px" y="0px" viewBox="0 0 500 500" style="width: 207px;" xml:space="preserve" data-imageid="3d-model-40" imageName="3D Model" class="illustrations_image">
<style type="text/css">
	.st0_3d-model-40{fill:#FFFFFF;}
	.st1_3d-model-40{fill:#093F68;}
	.st2_3d-model-40{fill:#68E1FD;}
</style>
<g id="object_3d-model-40">
	<polygon class="st0_3d-model-40" points="250,252.8 99,165.6 250,78.4 401,165.6 &#9;"/>
	<path class="st1_3d-model-40" d="M250,254.6c-0.3,0-0.6-0.1-0.9-0.2L98,167.2c-0.6-0.3-0.9-0.9-0.9-1.6c0-0.7,0.4-1.3,0.9-1.6l151-87.2&#xA;&#9;&#9;c0.6-0.3,1.3-0.3,1.9,0L402,164c0.9,0.5,1.2,1.7,0.7,2.5c-0.2,0.3-0.4,0.5-0.7,0.7l-151,87.2C250.7,254.6,250.3,254.7,250,254.6z&#xA;&#9;&#9; M102.7,165.6l147.3,85l147.3-85L250,80.5L102.7,165.6z"/>
	<polygon class="st0_3d-model-40" points="250,427.2 99,340 99,165.6 250,252.8 &#9;"/>
	<path class="st1_3d-model-40" d="M250,429c-0.3,0-0.6-0.1-0.9-0.2L98,341.6c-0.6-0.3-0.9-0.9-0.9-1.6V165.6c0-1,0.9-1.8,1.9-1.8&#xA;&#9;&#9;c0.3,0,0.6,0.1,0.9,0.2l151,87.2c0.6,0.3,0.9,0.9,0.9,1.6v174.4c0,0.7-0.4,1.3-0.9,1.6C250.6,428.9,250.3,429,250,429z&#xA;&#9;&#9; M100.8,338.9L248.1,424V253.9l-147.3-85L100.8,338.9z"/>
	<polygon class="st0_3d-model-40" points="401,340 250,427.2 250,252.8 401,165.6 &#9;"/>
	<path class="st1_3d-model-40" d="M250,429c-0.3,0-0.6-0.1-0.9-0.2c-0.6-0.3-0.9-0.9-0.9-1.6V252.8c0-0.7,0.4-1.3,0.9-1.6l151-87.2&#xA;&#9;&#9;c0.9-0.5,2-0.2,2.5,0.7c0.2,0.3,0.2,0.6,0.2,0.9V340c0,0.7-0.4,1.3-0.9,1.6l-151,87.2C250.6,429,250.3,429,250,429z M251.9,253.8&#xA;&#9;&#9;V424l147.3-85.1V168.8L251.9,253.8z M401,340L401,340z"/>
	<polygon class="st2_3d-model-40 targetColor" points="250,252.8 174.5,209.2 250,165.6 325.5,209.2 &#9;" style="fill: rgb(108, 99, 255);"/>
	<path class="st1_3d-model-40" d="M250,254.6c-0.3,0-0.6-0.1-0.9-0.2l-75.5-43.6c-0.9-0.5-1.2-1.7-0.7-2.5c0.2-0.3,0.4-0.5,0.7-0.7l75.5-43.6&#xA;&#9;&#9;c0.6-0.3,1.3-0.3,1.9,0l75.5,43.6c0.9,0.5,1.2,1.7,0.7,2.5c-0.2,0.3-0.4,0.5-0.7,0.7l-75.5,43.6C250.6,254.6,250.3,254.7,250,254.6&#xA;&#9;&#9;z M178.2,209.2l71.8,41.5l71.8-41.4L250,167.7L178.2,209.2z"/>
	<polygon class="st2_3d-model-40 targetColor" points="250,340 174.5,296.4 174.5,209.2 250,252.8 &#9;" style="fill: rgb(108, 99, 255);"/>
	<path class="st1_3d-model-40" d="M250,341.8c-0.3,0-0.6-0.1-0.9-0.2L173.6,298c-0.6-0.3-0.9-0.9-0.9-1.6v-87.2c0-1,0.8-1.9,1.9-1.9&#xA;&#9;&#9;c0.3,0,0.6,0.1,0.9,0.2l75.5,43.6c0.6,0.3,0.9,0.9,0.9,1.6V340c0,0.7-0.4,1.3-0.9,1.6C250.6,341.8,250.3,341.8,250,341.8z&#xA;&#9;&#9; M176.3,295.3l71.8,41.5v-82.9l-71.8-41.4V295.3z"/>
	<polygon class="st2_3d-model-40 targetColor" points="325.5,296.4 250,340 250,252.8 325.5,209.2 &#9;" style="fill: rgb(108, 99, 255);"/>
	<path class="st1_3d-model-40" d="M250,341.8c-0.3,0-0.6-0.1-0.9-0.2c-0.6-0.3-0.9-0.9-0.9-1.6v-87.2c0-0.7,0.4-1.3,0.9-1.6l75.5-43.6&#xA;&#9;&#9;c0.9-0.5,2-0.2,2.5,0.7c0.2,0.3,0.2,0.6,0.2,0.9v87.2c0,0.7-0.4,1.3-0.9,1.6l-75.5,43.6C250.6,341.8,250.3,341.8,250,341.8z&#xA;&#9;&#9; M251.9,253.8v82.9l71.8-41.5v-82.9L251.9,253.8z M325.5,296.4L325.5,296.4z"/>
	<path class="st1_3d-model-40" d="M250,84c-1,0-1.9-0.8-1.9-1.9l0,0v-3.8c0-1,0.8-1.9,1.9-1.9s1.9,0.8,1.9,1.9v3.7C251.9,83.1,251.1,84,250,84&#xA;&#9;&#9;C250,84,250,84,250,84z"/>
	<path class="st1_3d-model-40" d="M250,156.5c-1,0-1.9-0.8-1.9-1.9l0,0v-7.2c0-1,0.8-1.9,1.9-1.9s1.9,0.8,1.9,1.9v7.2&#xA;&#9;&#9;C251.9,155.6,251,156.5,250,156.5L250,156.5z M250,142c-1,0-1.9-0.8-1.9-1.8c0,0,0,0,0,0v-7.3c0-1,0.8-1.9,1.9-1.9s1.9,0.8,1.9,1.9&#xA;&#9;&#9;v7.3C251.9,141.2,251,142,250,142C250,142,250,142,250,142z M250,127.5c-1,0-1.9-0.8-1.9-1.9l0,0v-7.2c0-1,0.8-1.9,1.9-1.9&#xA;&#9;&#9;s1.9,0.8,1.9,1.9v7.2C251.8,126.7,251,127.5,250,127.5L250,127.5z M250,113c-1,0-1.9-0.8-1.9-1.9l0,0v-7.2c0-1,0.8-1.9,1.9-1.9&#xA;&#9;&#9;s1.9,0.8,1.9,1.9v7.2C251.9,112.2,251,113,250,113L250,113z M250,98.5c-1,0-1.9-0.8-1.9-1.9l0,0v-7.3c0-1,0.8-1.9,1.9-1.9&#xA;&#9;&#9;s1.9,0.8,1.9,1.9v7.2C251.9,97.6,251,98.4,250,98.5L250,98.5L250,98.5z"/>
	<path class="st1_3d-model-40" d="M250,167.4c-1,0-1.9-0.8-1.9-1.9l0,0v-3.7c0-1,0.8-1.9,1.9-1.9s1.9,0.8,1.9,1.9v3.7&#xA;&#9;&#9;C251.9,166.6,251,167.4,250,167.4L250,167.4z"/>
	<path class="st1_3d-model-40" d="M103.7,339.1c-1,0-1.9-0.8-1.9-1.8c0-0.7,0.4-1.3,0.9-1.6l6.4-3.7c0.9-0.5,2-0.3,2.6,0.6&#xA;&#9;&#9;c0.5,0.9,0.3,2-0.6,2.6c0,0-0.1,0-0.1,0.1l-6.4,3.7C104.3,339,104,339.1,103.7,339.1z M116.5,331.7c-1,0-1.9-0.8-1.9-1.9&#xA;&#9;&#9;c0-0.7,0.4-1.3,0.9-1.6l6.4-3.7c0.9-0.5,2-0.2,2.5,0.7s0.2,2-0.7,2.5l-6.4,3.7C117.2,331.6,116.9,331.7,116.5,331.7z M129.4,324.3&#xA;&#9;&#9;c-1,0-1.9-0.8-1.9-1.9c0-0.7,0.4-1.3,0.9-1.6l6.4-3.7c0.9-0.5,2-0.2,2.5,0.7c0.5,0.9,0.2,2-0.7,2.5l-6.4,3.7&#xA;&#9;&#9;C130.1,324.2,129.7,324.3,129.4,324.3z M142.3,316.8c-1,0-1.9-0.8-1.9-1.8c0-0.7,0.4-1.3,0.9-1.6l6.4-3.7c0.9-0.5,2-0.3,2.6,0.6&#xA;&#9;&#9;s0.3,2-0.6,2.6c0,0-0.1,0-0.1,0.1l-6.4,3.7C142.9,316.7,142.6,316.8,142.3,316.8z M155.2,309.4c-1,0-1.9-0.8-1.9-1.9&#xA;&#9;&#9;c0-0.7,0.4-1.3,0.9-1.6l6.4-3.7c0.9-0.5,2-0.2,2.5,0.7s0.2,2-0.7,2.5l-6.4,3.7C155.8,309.3,155.5,309.4,155.2,309.4z M168,302&#xA;&#9;&#9;c-1,0-1.9-0.8-1.9-1.9c0-0.7,0.4-1.3,0.9-1.6l6.4-3.7c0.9-0.5,2-0.3,2.6,0.6s0.3,2-0.6,2.6c0,0-0.1,0-0.1,0.1l-6.4,3.7&#xA;&#9;&#9;C168.7,301.9,168.4,302,168,302z"/>
	<path class="st1_3d-model-40" d="M396.3,339.1c-0.3,0-0.6-0.1-0.9-0.2l-6.4-3.7c-0.9-0.5-1.2-1.6-0.7-2.5c0.5-0.9,1.6-1.2,2.5-0.7&#xA;&#9;&#9;c0,0,0.1,0,0.1,0.1l6.4,3.7c0.9,0.5,1.2,1.6,0.7,2.5C397.7,338.8,397,339.1,396.3,339.1L396.3,339.1z M383.5,331.7&#xA;&#9;&#9;c-0.3,0-0.6-0.1-0.9-0.2l-6.4-3.7c-0.9-0.5-1.2-1.6-0.7-2.5c0.5-0.9,1.6-1.2,2.5-0.7l0,0l6.4,3.7c0.9,0.5,1.2,1.7,0.7,2.5&#xA;&#9;&#9;C384.7,331.3,384.1,331.7,383.5,331.7z M370.6,324.3c-0.3,0-0.6-0.1-0.9-0.2l-6.4-3.7c-0.9-0.5-1.2-1.6-0.7-2.5&#xA;&#9;&#9;c0.5-0.9,1.6-1.2,2.5-0.7c0,0,0.1,0,0.1,0.1l6.4,3.7c0.9,0.5,1.2,1.7,0.7,2.5C371.9,323.9,371.2,324.3,370.6,324.3L370.6,324.3z&#xA;&#9;&#9; M357.7,316.8c-0.3,0-0.6-0.1-0.9-0.2l-6.4-3.7c-0.9-0.5-1.2-1.6-0.7-2.5c0.5-0.9,1.6-1.2,2.5-0.7c0,0,0.1,0,0.1,0.1l6.4,3.7&#xA;&#9;&#9;c0.9,0.5,1.2,1.6,0.7,2.5C359,316.5,358.4,316.8,357.7,316.8z M344.8,309.4c-0.3,0-0.6-0.1-0.9-0.2l-6.4-3.7&#xA;&#9;&#9;c-0.9-0.5-1.2-1.6-0.7-2.5s1.6-1.2,2.5-0.7l6.4,3.7c0.9,0.5,1.2,1.7,0.7,2.5C346.1,309,345.5,309.4,344.8,309.4L344.8,309.4z&#xA;&#9;&#9; M332,302c-0.3,0-0.6-0.1-0.9-0.2l-6.5-3.8c-0.9-0.5-1.2-1.6-0.7-2.5c0.5-0.9,1.6-1.2,2.5-0.7c0,0,0.1,0,0.1,0.1l6.4,3.7&#xA;&#9;&#9;c0.9,0.5,1.2,1.6,0.8,2.5C333.3,301.6,332.7,302,332,302z"/>
</g>
</svg>