<svg id="_0450_easter_egg_2" xmlns="http://www.w3.org/2000/svg" xmlns:xlink="http://www.w3.org/1999/xlink" viewBox="0 0 500 500" data-imageid="easter-egg-2-75" imageName="Easter Egg 2" class="illustrations_image" style="width: 198px;"><defs><style>.cls-1_easter-egg-2-75{fill:url(#linear-gradient);}.cls-1_easter-egg-2-75,.cls-2_easter-egg-2-75,.cls-3_easter-egg-2-75,.cls-4_easter-egg-2-75,.cls-5_easter-egg-2-75,.cls-6_easter-egg-2-75,.cls-7_easter-egg-2-75,.cls-8_easter-egg-2-75,.cls-9_easter-egg-2-75,.cls-10_easter-egg-2-75,.cls-11_easter-egg-2-75,.cls-12_easter-egg-2-75,.cls-13_easter-egg-2-75,.cls-14_easter-egg-2-75,.cls-15_easter-egg-2-75,.cls-16_easter-egg-2-75,.cls-17_easter-egg-2-75,.cls-18_easter-egg-2-75,.cls-19_easter-egg-2-75,.cls-20_easter-egg-2-75{stroke-width:0px;}.cls-2_easter-egg-2-75{opacity:.18;}.cls-2_easter-egg-2-75,.cls-10_easter-egg-2-75{isolation:isolate;}.cls-2_easter-egg-2-75,.cls-20_easter-egg-2-75{fill:#68e1fd;}.cls-3_easter-egg-2-75{fill:url(#linear-gradient-11-easter-egg-2-75);}.cls-4_easter-egg-2-75{fill:url(#linear-gradient-12-easter-egg-2-75);}.cls-5_easter-egg-2-75{fill:url(#linear-gradient-13-easter-egg-2-75);}.cls-6_easter-egg-2-75{fill:url(#linear-gradient-10-easter-egg-2-75);}.cls-7_easter-egg-2-75{fill:url(#linear-gradient-16-easter-egg-2-75);}.cls-8_easter-egg-2-75{fill:url(#linear-gradient-15-easter-egg-2-75);}.cls-9_easter-egg-2-75{fill:url(#linear-gradient-14-easter-egg-2-75);}.cls-10_easter-egg-2-75{opacity:.54;}.cls-10_easter-egg-2-75,.cls-19_easter-egg-2-75{fill:#fff;}.cls-21_easter-egg-2-75{opacity:.52;}.cls-11_easter-egg-2-75{fill:url(#linear-gradient-4-easter-egg-2-75);}.cls-12_easter-egg-2-75{fill:url(#linear-gradient-2-easter-egg-2-75);}.cls-13_easter-egg-2-75{fill:url(#linear-gradient-3-easter-egg-2-75);}.cls-14_easter-egg-2-75{fill:url(#linear-gradient-8-easter-egg-2-75);}.cls-15_easter-egg-2-75{fill:url(#linear-gradient-9-easter-egg-2-75);}.cls-16_easter-egg-2-75{fill:url(#linear-gradient-7-easter-egg-2-75);}.cls-17_easter-egg-2-75{fill:url(#linear-gradient-5-easter-egg-2-75);}.cls-18_easter-egg-2-75{fill:url(#linear-gradient-6-easter-egg-2-75);}</style><linearGradient id="linear-gradient-easter-egg-2-75" x1="276.79" y1="1814.96" x2="281.9" y2="1934.98" gradientTransform="translate(-35.64 2283.61) scale(1 -1)" gradientUnits="userSpaceOnUse"><stop offset="0" stop-color="#000"/><stop offset=".13" stop-color="#000" stop-opacity=".69"/><stop offset="1" stop-color="#000" stop-opacity="0"/></linearGradient><linearGradient id="linear-gradient-2-easter-egg-2-75" x1="337.67" y1="2086.31" x2="292.27" y2="2127.74" xlink:href="#linear-gradient-easter-egg-2-75"/><linearGradient id="linear-gradient-3-easter-egg-2-75" x1="-336.45" y1="1824.06" x2="-369.05" y2="1853.82" gradientTransform="translate(-660.84 1767.95) rotate(41.87) scale(1 -1)" xlink:href="#linear-gradient-easter-egg-2-75"/><linearGradient id="linear-gradient-4-easter-egg-2-75" x1="297.54" y1="2028.49" x2="264.93" y2="2058.24" gradientTransform="translate(-121.85 2255.28) rotate(2.78) scale(1 -1)" xlink:href="#linear-gradient-easter-egg-2-75"/><linearGradient id="linear-gradient-5-easter-egg-2-75" x1="462.4" y1="2037.47" x2="516.57" y2="2037.47" xlink:href="#linear-gradient-easter-egg-2-75"/><linearGradient id="linear-gradient-6-easter-egg-2-75" x1="440.41" y1="2036.78" x2="441.24" y2="1982.82" gradientTransform="translate(-31 2323.65) scale(1 -1)" xlink:href="#linear-gradient-easter-egg-2-75"/><linearGradient id="linear-gradient-7-easter-egg-2-75" x1="378.66" y1="1940.11" x2="429.11" y2="1992.41" xlink:href="#linear-gradient-easter-egg-2-75"/><linearGradient id="linear-gradient-8-easter-egg-2-75" x1="487.56" y1="2026.68" x2="401" y2="1993.68" gradientTransform="translate(-35.64 2283.61) scale(1 -1)" gradientUnits="userSpaceOnUse"><stop offset="0" stop-color="#fff"/><stop offset=".13" stop-color="#fff" stop-opacity=".69"/><stop offset="1" stop-color="#fff" stop-opacity="0"/></linearGradient><linearGradient id="linear-gradient-9-easter-egg-2-75" x1="359.58" y1="2061.83" x2="360.96" y2="1971.61" gradientTransform="translate(-31 2323.65) scale(1 -1)" xlink:href="#linear-gradient-easter-egg-2-75"/><linearGradient id="linear-gradient-10-easter-egg-2-75" x1="253.2" y1="1927.14" x2="337.53" y2="2014.6" xlink:href="#linear-gradient-easter-egg-2-75"/><linearGradient id="linear-gradient-11-easter-egg-2-75" x1="435.27" y1="2071.85" x2="290.57" y2="2016.67" xlink:href="#linear-gradient-8-easter-egg-2-75"/><linearGradient id="linear-gradient-12-easter-egg-2-75" x1="158.01" y1="319.32" x2="182.82" y2="319.32" gradientTransform="matrix(1,0,0,1,0,0)" xlink:href="#linear-gradient-easter-egg-2-75"/><linearGradient id="linear-gradient-13-easter-egg-2-75" x1="163.09" y1="2070.25" x2="130.17" y2="1923.84" xlink:href="#linear-gradient-easter-egg-2-75"/><linearGradient id="linear-gradient-14-easter-egg-2-75" x1="260.3" y1="2029.1" x2="158.15" y2="2004.41" xlink:href="#linear-gradient-8-easter-egg-2-75"/><linearGradient id="linear-gradient-15-easter-egg-2-75" x1="145.55" y1="320.6" x2="170.38" y2="320.6" gradientTransform="matrix(1,0,0,1,0,0)" xlink:href="#linear-gradient-easter-egg-2-75"/><linearGradient id="linear-gradient-16-easter-egg-2-75" x1="211.63" y1="2078.95" x2="217.03" y2="2078.95" gradientTransform="translate(-1903.11 366.15) rotate(80.78) scale(1 -1)" xlink:href="#linear-gradient-easter-egg-2-75"/></defs><g id="background_easter-egg-2-75"><path class="cls-2_easter-egg-2-75 targetColor" d="M485.47,278.96c-1.77,10.06-3.56,20.13-5.74,30.22-3.72,17.2-8.59,34.07-16.45,49.77-15.47,30.86-48.65,57.14-82.1,65.75-22.02,5.64-44.95,6.39-67.67,7.11-46.79,1.48-93.59,3.05-140.38,4.44-17.78.54-29.2.4-45.05-6.82-46.55-21.16-90.16-43.69-107.62-95.45-1.83-5.44-3.38-10.97-4.63-16.57-5.68-25.04-6.03-51.25-4.6-76.99,2.95-53.11,17.02-111.73,61.65-140.69,1.48-.97,2.98-1.88,4.5-2.75,28.85-16.65,64.41-18.41,97.77-15,35.1,3.6,69.78,12.31,105.02,12.53,41.6.28,82.31-11.18,123.79-13.59,18.79-1.09,38.66,0,54.36,10.27,14.92,9.76,23.9,26.48,29.27,43.48,14.56,46.34,6.31,96.42-2.11,144.28Z" style="fill: rgb(108, 99, 255);"/><path class="cls-20_easter-egg-2-75 targetColor" d="M479.72,309.18c-3.72,17.2-8.59,34.07-16.45,49.77-15.47,30.86-48.65,57.14-82.1,65.75-22.02,5.64-44.95,6.39-67.67,7.11-46.79,1.48-93.59,3.05-140.38,4.44-17.78.54-29.2.4-45.05-6.82-46.55-21.16-90.16-43.69-107.62-95.45-1.83-5.44-3.38-10.97-4.63-16.57,21.94-10.13,76.49,2.46,96.87,3.14,79.72,2.68,159.5,2.38,239.27,2.05,43-.17,86.84-.47,127.77-13.43Z" style="fill: rgb(108, 99, 255);"/><path class="cls-1_easter-egg-2-75" d="M479.72,309.18c-3.72,17.2-8.59,34.07-16.45,49.77-15.47,30.86-48.65,57.14-82.1,65.75-22.02,5.64-44.95,6.39-67.67,7.11-46.79,1.48-93.59,3.05-140.38,4.44-17.78.54-29.2.4-45.05-6.82-46.55-21.16-90.16-43.69-107.62-95.45-1.83-5.44-3.38-10.97-4.63-16.57,21.94-10.13,76.49,2.46,96.87,3.14,79.72,2.68,159.5,2.38,239.27,2.05,43-.17,86.84-.47,127.77-13.43Z"/></g><g id="easter_egg_easter-egg-2-75"><path class="cls-20_easter-egg-2-75 targetColor" d="M276.59,163.56c-.89-1.29-1.54-2.72-1.93-4.23-.17-1.45-.11-2.93.2-4.36,1.16-8.03.92-16.21-.74-24.15-.97-4.64-3.14-9.9-7.76-11.02-3.35-.58-6.73.83-8.67,3.62-1.84,2.77-2.73,6.07-2.55,9.39.11,5.42,1.89,10.67,5.1,15.04-2.47-5.05-5.14-10.28-9.72-13.54-4.58-3.26-11.65-3.77-15.39.43-3.74,4.2-2.44,11.18,1.34,15.35,3.78,4.17,9.3,6.23,14.61,8.05-8.32.3-15.91,4.82-20.13,12-1.19,1.77-1.67,3.93-1.34,6.04.75,3.1,4.2,4.78,7.37,5.1,6.78.56,13.24-3,16.38-9.03-4.2,1.85-9.22,5.37-7.93,9.72.62,1.78,2.02,3.19,3.8,3.84,4.95,1.96,10.74-1.18,13.51-5.74s3.17-10.1,3.35-15.42c1.52-1.61,4.29-1.26,6,.13,1.57,1.55,2.74,3.47,3.4,5.58,1.66,4.21,3.01,10.17,5.86,13.42,5.56-5.1-2-15.16-4.78-20.22Z" style="fill: rgb(108, 99, 255);"/><path class="cls-12_easter-egg-2-75" d="M276.59,163.56c-.89-1.29-1.54-2.72-1.93-4.23-.17-1.45-.11-2.93.2-4.36,1.16-8.03.92-16.21-.74-24.15-.97-4.64-3.14-9.9-7.76-11.02-3.35-.58-6.73.83-8.67,3.62-1.84,2.77-2.73,6.07-2.55,9.39.11,5.42,1.89,10.67,5.1,15.04-2.47-5.05-5.14-10.28-9.72-13.54-4.58-3.26-11.65-3.77-15.39.43-3.74,4.2-2.44,11.18,1.34,15.35,3.78,4.17,9.3,6.23,14.61,8.05-8.32.3-15.91,4.82-20.13,12-1.19,1.77-1.67,3.93-1.34,6.04.75,3.1,4.2,4.78,7.37,5.1,6.78.56,13.24-3,16.38-9.03-4.2,1.85-9.22,5.37-7.93,9.72.62,1.78,2.02,3.19,3.8,3.84,4.95,1.96,10.74-1.18,13.51-5.74s3.17-10.1,3.35-15.42c1.52-1.61,4.29-1.26,6,.13,1.57,1.55,2.74,3.47,3.4,5.58,1.66,4.21,3.01,10.17,5.86,13.42,5.56-5.1-2-15.16-4.78-20.22Z"/><path class="cls-20_easter-egg-2-75 targetColor" d="M308.69,154.89c.15-2.2,1.33-4.19,3.19-5.37,4.47-3.74,8.25-8.23,11.18-13.27,1.7-2.95,3.07-6.8,1.13-9.61-1.51-1.93-4.01-2.79-6.39-2.21-2.33.61-4.39,1.96-5.89,3.84-2.55,2.95-4.11,6.62-4.48,10.49,1.1-3.88,2.17-7.97,1.34-11.9s-4.41-7.6-8.43-7.15-6.71,4.82-6.71,8.86,2,7.8,3.95,11.34c-4.59-3.82-10.81-5.03-16.49-3.21-1.49.36-2.79,1.28-3.64,2.56-1.09,2.03,0,4.58,1.5,6.27,3.35,3.56,8.51,4.75,13.08,3.02-3.13-1.02-7.47-1.57-8.9,1.34-.53,1.26-.45,2.68.2,3.88,1.7,3.42,6.32,4.52,9.97,3.41,3.65-1.11,6.54-3.89,9.19-6.71,1.64.06,2.98,1.32,3.14,2.95.1,1.58-.19,3.16-.86,4.6-1.13,3.06-3.26,6.88-3.31,10.02,5.49-.11,6.27-9.13,7.22-13.15Z" style="fill: rgb(108, 99, 255);"/><path class="cls-13_easter-egg-2-75" d="M308.69,154.89c.15-2.2,1.33-4.19,3.19-5.37,4.47-3.74,8.25-8.23,11.18-13.27,1.7-2.95,3.07-6.8,1.13-9.61-1.51-1.93-4.01-2.79-6.39-2.21-2.33.61-4.39,1.96-5.89,3.84-2.55,2.95-4.11,6.62-4.48,10.49,1.1-3.88,2.17-7.97,1.34-11.9s-4.41-7.6-8.43-7.15-6.71,4.82-6.71,8.86,2,7.8,3.95,11.34c-4.59-3.82-10.81-5.03-16.49-3.21-1.49.36-2.79,1.28-3.64,2.56-1.09,2.03,0,4.58,1.5,6.27,3.35,3.56,8.51,4.75,13.08,3.02-3.13-1.02-7.47-1.57-8.9,1.34-.53,1.26-.45,2.68.2,3.88,1.7,3.42,6.32,4.52,9.97,3.41,3.65-1.11,6.54-3.89,9.19-6.71,1.64.06,2.98,1.32,3.14,2.95.1,1.58-.19,3.16-.86,4.6-1.13,3.06-3.26,6.88-3.31,10.02,5.49-.11,6.27-9.13,7.22-13.15Z"/><path class="cls-20_easter-egg-2-75 targetColor" d="M256.69,218.49c-.59-.95-1.01-2-1.23-3.1-.08-1.05.02-2.11.3-3.13,1.12-5.72,1.22-11.59.31-17.35-.54-3.37-1.91-7.22-5.18-8.17-2.4-.57-4.91.34-6.4,2.31-1.43,1.94-2.18,4.3-2.16,6.71-.11,3.9.98,7.73,3.14,10.98-1.6-3.72-3.34-7.57-6.51-10.06s-8.21-3.1-11.04-.23c-2.83,2.87-2.15,7.94.42,11.07s6.45,4.79,10.21,6.31c-5.97-.07-11.57,2.91-14.83,7.92-.93,1.22-1.36,2.75-1.21,4.28.43,2.24,2.84,3.57,5.11,3.91,4.84.65,9.6-1.68,12.08-5.89-3.09,1.18-6.8,3.49-6.04,6.71.39,1.3,1.35,2.36,2.6,2.89,3.48,1.58,7.76-.47,9.89-3.64,2.13-3.17,2.62-7.14,2.94-10.95,1.31-.99,3.14-.86,4.29.31,1.08,1.16,1.85,2.58,2.24,4.12,1.06,3.07,1.81,7.39,3.74,9.86,4.21-3.64-.87-11.12-2.67-14.84Z" style="fill: rgb(108, 99, 255);"/><path class="cls-11_easter-egg-2-75" d="M256.69,218.49c-.59-.95-1.01-2-1.23-3.1-.08-1.05.02-2.11.3-3.13,1.12-5.72,1.22-11.59.31-17.35-.54-3.37-1.91-7.22-5.18-8.17-2.4-.57-4.91.34-6.4,2.31-1.43,1.94-2.18,4.3-2.16,6.71-.11,3.9.98,7.73,3.14,10.98-1.6-3.72-3.34-7.57-6.51-10.06s-8.21-3.1-11.04-.23c-2.83,2.87-2.15,7.94.42,11.07s6.45,4.79,10.21,6.31c-5.97-.07-11.57,2.91-14.83,7.92-.93,1.22-1.36,2.75-1.21,4.28.43,2.24,2.84,3.57,5.11,3.91,4.84.65,9.6-1.68,12.08-5.89-3.09,1.18-6.8,3.49-6.04,6.71.39,1.3,1.35,2.36,2.6,2.89,3.48,1.58,7.76-.47,9.89-3.64,2.13-3.17,2.62-7.14,2.94-10.95,1.31-.99,3.14-.86,4.29.31,1.08,1.16,1.85,2.58,2.24,4.12,1.06,3.07,1.81,7.39,3.74,9.86,4.21-3.64-.87-11.12-2.67-14.84Z"/><path class="cls-20_easter-egg-2-75 targetColor" d="M470.26,166.89c-18.79,22.33-37.8,48.51-35.06,77.55,3.89-14.51,10.31-28.21,18.95-40.5l-12.91,49.92c9.94-18.45,20.97-38.02,39.69-47.44-18.7,14.33-31.22,35.26-35.01,58.51,6.85-11.43,17.54-20.07,30.15-24.37l-25.9,32.54c7.09-6.36,15.22-11.45,24.03-15.06l-21.73,26.41,23.73-6.87c-6.85,5.63-13.16,11.89-18.85,18.69,5.66-2.67,11.68-4.52,17.86-5.49l-12.35,18.96c3.57-3.83,8.06-6.68,13.04-8.27,1.41,4.16-.93,8.84-4.41,11.51-3.49,2.67-7.89,3.78-12.16,4.82l-31.28,7.57c1.71-16.9,1.95-33.93.71-50.87-1.05-14.17-3.52-26.66-.71-40.67,2.68-13.71,6.95-26.5,14.52-38.38s19.03-18.28,27.68-28.57Z" style="fill: rgb(108, 99, 255);"/><path class="cls-17_easter-egg-2-75" d="M470.26,166.89c-18.79,22.33-37.8,48.51-35.06,77.55,3.89-14.51,10.31-28.21,18.95-40.5l-12.91,49.92c9.94-18.45,20.97-38.02,39.69-47.44-18.7,14.33-31.22,35.26-35.01,58.51,6.85-11.43,17.54-20.07,30.15-24.37l-25.9,32.54c7.09-6.36,15.22-11.45,24.03-15.06l-21.73,26.41,23.73-6.87c-6.85,5.63-13.16,11.89-18.85,18.69,5.66-2.67,11.68-4.52,17.86-5.49l-12.35,18.96c3.57-3.83,8.06-6.68,13.04-8.27,1.41,4.16-.93,8.84-4.41,11.51-3.49,2.67-7.89,3.78-12.16,4.82l-31.28,7.57c1.71-16.9,1.95-33.93.71-50.87-1.05-14.17-3.52-26.66-.71-40.67,2.68-13.71,6.95-26.5,14.52-38.38s19.03-18.28,27.68-28.57Z"/><ellipse class="cls-18_easter-egg-2-75" cx="410.09" cy="331.04" rx="46.9" ry="4.98"/><path class="cls-20_easter-egg-2-75 targetColor" d="M442.7,291.91v.23c0,2.92-.21,5.83-.67,8.71-.75,5.03-2.44,9.87-4.98,14.28-.12.23-.25.44-.39.66-1.43,2.36-3.14,4.54-5.09,6.49-7.98,8.05-19.51,11.94-31.91,11.94-11.21,0-21.05-3.15-28.18-9.72-1.9-1.73-3.58-3.68-5.03-5.8-2.63-3.88-4.53-8.21-5.62-12.78-1.07-4.5-1.6-9.12-1.56-13.75v-1.88c0-1.66.15-3.37.31-5.09.35-3.67.92-7.31,1.72-10.91,3.84-17.63,12.72-35.67,24.15-44.83,4.8-3.88,10.06-6.17,15.55-6.17,22.96-.04,41.6,39.92,41.69,68.61Z" style="fill: rgb(108, 99, 255);"/><path class="cls-16_easter-egg-2-75" d="M442.7,291.91v.21c.01,2.92-.21,5.83-.67,8.71-.15.86-.31,1.7-.48,2.52-.39,1.82-.9,3.62-1.54,5.37-.79,2.21-1.78,4.34-2.95,6.36-.12.23-.25.44-.39.66l-.52.85c-.87,1.34-1.84,2.62-2.89,3.84-.54.62-1.1,1.23-1.68,1.81-2.39,2.4-5.1,4.47-8.05,6.13-3.57,2-7.41,3.49-11.41,4.41-4.08.93-8.26,1.38-12.44,1.34h-2.36c-2.08-.09-4.15-.29-6.2-.62-7.31-1.02-14.15-4.17-19.67-9.06-1.9-1.73-3.58-3.68-5.03-5.8-2.61-3.87-4.5-8.18-5.58-12.72-1.07-4.51-1.6-9.14-1.56-13.78v-1.87c0-1.66.16-3.37.32-5.09.35-3.67.93-7.31,1.72-10.91,1.67-7.6,4.18-14.99,7.49-22.03,4.39-9.39,10.1-17.51,16.63-22.81.21-.17.42-.34.64-.5,3.62-2.97,7.99-4.89,12.63-5.54,3.3-.38,6.65.05,9.74,1.26,1.61.61,3.15,1.38,4.6,2.29,1.8,1.11,3.5,2.39,5.07,3.81,1.53,1.37,2.97,2.85,4.29,4.41,1.81,2.09,3.47,4.3,4.98,6.62.9,1.34,1.77,2.8,2.62,4.29,1.26,2.21,2.46,4.52,3.56,6.92,4.42,9.63,7.33,19.89,8.62,30.41h0c.09.81.17,1.62.24,2.43.17,2.05.27,4.08.28,6.05Z"/><path class="cls-20_easter-egg-2-75 targetColor" d="M442.7,292.12c0,9.57-2.23,17.45-6.04,23.66-7.58,5.58-17.31,8.28-27.66,8.28-23.04,0-40.41-13.42-40.41-42.11,0-17.08,6.62-38.2,16.81-52.52,4.82-3.88,10.06-6.17,15.57-6.17,23.04,0,41.72,40.16,41.72,68.87Z" style="fill: rgb(108, 99, 255);"/><path class="cls-14_easter-egg-2-75" d="M442.7,292.12c0,9.57-2.23,17.45-6.04,23.66-7.58,5.58-17.31,8.28-27.66,8.28-23.04,0-40.41-13.42-40.41-42.11,0-17.08,6.62-38.2,16.81-52.52,4.82-3.88,10.06-6.17,15.57-6.17,23.04,0,41.72,40.16,41.72,68.87Z"/><circle class="cls-10_easter-egg-2-75" cx="415.77" cy="259.63" r="11.41"/><circle class="cls-10_easter-egg-2-75" cx="417.05" cy="295.17" r="11.41"/><circle class="cls-10_easter-egg-2-75" cx="400.98" cy="318.41" r="11.41"/><circle class="cls-10_easter-egg-2-75" cx="393.4" cy="240.64" r="7.58"/><circle class="cls-10_easter-egg-2-75" cx="414.46" cy="235.53" r="7.58"/><circle class="cls-10_easter-egg-2-75" cx="379.08" cy="280.02" r="7.58"/><circle class="cls-10_easter-egg-2-75" cx="395.73" cy="267.19" r="5.25"/><circle class="cls-10_easter-egg-2-75" cx="433.71" cy="278.73" r="5.25"/><circle class="cls-10_easter-egg-2-75" cx="393.4" cy="298.4" r="5.25"/><circle class="cls-10_easter-egg-2-75" cx="373.24" cy="313.18" r="5.25"/><ellipse class="cls-15_easter-egg-2-75" cx="329.71" cy="335.65" rx="78.42" ry="8.33"/><path class="cls-20_easter-egg-2-75 targetColor" d="M384.22,270.25v.36c.02,4.88-.36,9.75-1.13,14.56-1.26,8.41-4.07,16.51-8.31,23.89l-.64,1.1c-2.41,3.94-5.27,7.59-8.52,10.87-13.34,13.42-32.61,19.95-53.34,19.95-18.79,0-35.21-5.27-47.21-16.24-3.17-2.9-6-6.15-8.41-9.7-4.38-6.54-7.54-13.81-9.33-21.47-1.8-7.54-2.67-15.27-2.6-23.01v-3.13c.07-2.79.25-5.63.52-8.52.59-6.13,1.55-12.22,2.87-18.24,6.4-29.52,21.27-59.62,40.26-74.95,8.05-6.49,16.83-10.32,26.02-10.32,38.5.05,69.65,66.85,69.82,114.84Z" style="fill: rgb(108, 99, 255);"/><path class="cls-6_easter-egg-2-75" d="M384.22,270.25v.36c.02,4.88-.36,9.75-1.13,14.56-.23,1.44-.5,2.84-.79,4.21-.66,3.06-1.52,6.08-2.58,9.03-1.32,3.69-2.97,7.26-4.95,10.64-.2.38-.42.75-.64,1.1s-.59.95-.89,1.34c-1.46,2.25-3.07,4.39-4.82,6.41-.9,1.05-1.84,2.07-2.8,3.05-3.98,4.01-8.5,7.46-13.42,10.24-5.97,3.35-12.39,5.83-19.06,7.38-6.82,1.59-13.8,2.37-20.8,2.35-1.34,0-2.68,0-4.03-.08-3.48-.13-6.94-.48-10.37-1.03-12.8-2.07-24.06-7.07-32.88-15.14-3.18-2.89-6-6.15-8.41-9.7-4.37-6.51-7.53-13.77-9.33-21.4-1.8-7.54-2.67-15.27-2.6-23.03v-3.13c.08-2.79.25-5.64.54-8.51.59-6.13,1.54-12.22,2.87-18.24,2.77-12.72,6.95-25.1,12.48-36.89,7.35-15.62,16.89-29.28,27.8-38.07l1.07-.83c6.07-4.97,13.39-8.17,21.16-9.25,1.27-.15,2.55-.23,3.82-.23,4.26.02,8.48.81,12.45,2.33,2.69,1.03,5.27,2.31,7.72,3.84,3.01,1.86,5.85,3.99,8.48,6.36,2.55,2.31,4.94,4.77,7.18,7.38,3.01,3.5,5.78,7.2,8.31,11.07,1.52,2.29,2.98,4.7,4.37,7.17,2.12,3.7,4.11,7.58,5.94,11.59,7.39,16.1,12.26,33.26,14.41,50.85h0c.16,1.34.3,2.68.4,4.03.3,3.52.45,6.92.47,10.23Z"/><path class="cls-20_easter-egg-2-75 targetColor" d="M384.22,270.6c0,16-3.7,29.15-10.09,39.56-12.68,9.31-28.95,13.82-46.24,13.82-38.53,0-67.55-22.37-67.55-70.38,0-28.56,11.06-63.89,28.18-87.83,8.05-6.48,16.83-10.31,26.01-10.31,38.47,0,69.7,67.14,69.7,115.14Z" style="fill: rgb(108, 99, 255);"/><path class="cls-3_easter-egg-2-75" d="M384.22,270.6c0,16-3.7,29.15-10.09,39.56-12.68,9.31-28.95,13.82-46.24,13.82-38.53,0-67.55-22.37-67.55-70.38,0-28.56,11.06-63.89,28.18-87.83,8.05-6.48,16.83-10.31,26.01-10.31,38.47,0,69.7,67.14,69.7,115.14Z"/><g class="cls-21_easter-egg-2-75"><path class="cls-19_easter-egg-2-75" d="M373.31,311.57c-1.46,2.25-3.07,4.39-4.82,6.41-2.52-11.92-6.53-23.47-11.94-34.38-7.88-16.3-17.96-31.41-27.85-46.59-5.69-8.74-11.45-17.85-13.07-28.18-1.48-9.39.67-19.1,4.86-27.6,3.26-6.57,7.49-12.6,12.56-17.9.56-.59,1.1-1.17,1.65-1.69,3.01,1.86,5.85,3.99,8.48,6.36-6.71,8.52-12.84,17.83-14.9,28.46-2.17,11.3.46,23.05,4.95,33.64,4.5,10.59,10.83,20.28,16.48,30.3,8.41,15.29,15.8,31.13,22.12,47.4.44,1.25.94,2.51,1.48,3.77Z"/><path class="cls-19_easter-egg-2-75" d="M382.3,289.38c-.66,3.06-1.52,6.08-2.58,9.03l-33.05-58.24c-4.67-8.24-9.49-16.99-9.27-26.45.15-6.44,2.62-12.57,5.06-18.53,1.68-4.03,4.2-15.26,7.85-19.78,3.01,3.5,5.78,7.2,8.31,11.07-1.18,2.59-2.68,5.06-4.03,7.6-3.81,7.56-5.37,16.05-4.51,24.48,1.49,14.2,9.64,26.66,16.67,39.08,5.31,9.35,10.09,18.98,14.33,28.85.43.94.84,1.91,1.22,2.9Z"/><path class="cls-19_easter-egg-2-75" d="M383.75,260.12c-7.38-9.07-14.15-18.62-20.26-28.58-1.72-2.53-3.02-5.33-3.82-8.28-.47-2.66-.52-5.38-.13-8.05.4-3.81,1.18-14.76,3.46-21.47,2.12,3.7,4.11,7.58,5.94,11.59-.58,1.05-1.06,2.15-1.44,3.29-.72,2.82-.84,5.75-.38,8.62.82,7.22,2.8,14.26,5.85,20.85,2.35,4.83,4.98,9.52,7.88,14.04l2.5,4.03h0c.16,1.27.3,2.63.4,3.97Z"/><path class="cls-19_easter-egg-2-75" d="M352.13,331.26c-5.97,3.35-12.39,5.83-19.06,7.38-2.77-18.73-8.63-36.87-17.34-53.68-6.71-12.95-15.08-25-21.7-38-6.62-13-11.51-27.38-10.56-41.94.93-13.82,7.13-26.93,15.73-37.82,3.35-4.3,7.19-8.19,11.45-11.58,1.27-.15,2.55-.23,3.82-.23,4.26.02,8.48.81,12.45,2.33-2.12,5.7-11.22,12.96-13.42,15.5-6.42,7.56-10.47,16.85-11.63,26.7-1.77,15.32,3.61,30.64,10.98,44.19s16.76,25.91,24.03,39.51c6.45,12.08,11.18,25,14.04,38.39.71,3.03,1.11,6.12,1.21,9.23Z"/><path class="cls-19_easter-egg-2-75" d="M308.32,340.91c-3.48-.13-6.94-.48-10.37-1.03-1.41-22.65-16.1-42.04-25.5-62.75-10.34-22.95-14.43-48.24-11.84-73.28,7.35-15.62,16.89-29.28,27.8-38.07l1.07-.83c-1.44,7.74-5.68,19.36-6.41,22.21-4.17,15.85-8.37,32.07-7.06,48.42,2.01,24.85,16.38,46.67,27.2,69.14,3.14,6.52,6.04,13.3,6.96,20.48.78,5.32.14,10.74-1.87,15.73Z"/></g></g><g id="chick_easter-egg-2-75"><path class="cls-20_easter-egg-2-75 targetColor" d="M165.67,324.43c-2.67-.24-5.35.35-7.66,1.7l6.49.97c.69.13,1.4.19,2.11.19.75-.07,1.49-.18,2.23-.34,4.52-.74,9.11.52,13.51,1.77-.5-1.69-2.35-2.54-4.03-3.07-2.78-.87-5.64-1.45-8.53-1.72,4.36-.03,8.71.26,13.03.86-4.46-2.9-10.05-3.19-15.37-3.4-1.17-3.62-1.7-7.41-1.57-11.21,0-.24-1.52-.31-1.73-.27-1.02.21-.87.17-.98.99-.15,1.13.95,3.34,1.21,4.48.67,2.97,1.1,5.99,1.29,9.03Z" style="fill: rgb(108, 99, 255);"/><path class="cls-4_easter-egg-2-75" d="M165.67,324.43c-2.67-.24-5.35.35-7.66,1.7l6.49.97c.69.13,1.4.19,2.11.19.75-.07,1.49-.18,2.23-.34,4.52-.74,9.11.52,13.51,1.77-.5-1.69-2.35-2.54-4.03-3.07-2.78-.87-5.64-1.45-8.53-1.72,4.36-.03,8.71.26,13.03.86-4.46-2.9-10.05-3.19-15.37-3.4-1.17-3.62-1.7-7.41-1.57-11.21,0-.24-1.52-.31-1.73-.27-1.02.21-.87.17-.98.99-.15,1.13.95,3.34,1.21,4.48.67,2.97,1.1,5.99,1.29,9.03Z"/><path class="cls-5_easter-egg-2-75" d="M104.8,322.26l5.07,4.12c-24.15,1.74-48.17,4.56-72.05,8.45-.61.04-1.2.25-1.69.62-1.34,1.17,0,3.25,1.21,4.44,13.33,12.65,29.41,22.06,46.97,27.48l-4.74-12.63,40.61.3c7.38,0,15.47-.15,21.03-5.01-2.32-1.04-4.35-2.64-5.92-4.64,3.33-4.79,8.42-8.09,14.16-9.17-2.07-3.31,2.09-7.25,5.93-7.96,3.84-.71,8.32-.28,11.11-3.02-20.57-2.05-41.13-.32-61.69-2.99Z"/><path class="cls-20_easter-egg-2-75 targetColor" d="M194.29,247.33l15.11,2.76-13.23,5.74s-3.26-4.36-1.88-8.51Z" style="fill: rgb(108, 99, 255);"/><path class="cls-20_easter-egg-2-75 targetColor" d="M178.27,230.36c-3.57-.74-7.26-.12-10.9,0s-7.57-.3-10.31-2.68c-.06,1.79.59,3.54,1.81,4.86l-4.74.12c.93,2.03,2.2,3.89,3.76,5.5-3.54,3.7-6.33,8.04-8.24,12.79-3.37-.09-6.69.79-9.58,2.54-5.93,3.61-9.39,10.56-15.75,13.42-4.19,1.93-8.99,1.78-13.59,1.6.49,2.01,1.86,3.7,3.73,4.59l-3.78,1.45c.83,1.52,2.39,2.49,4.12,2.56l-2.16,1.1c9.46,7.76,19.43,14.86,29.86,21.26.38.18.7.47.93.83.15.43.2.89.12,1.34-.13,3.86,2.15,7.39,5.72,8.87-.84.67-1.31,1.71-1.25,2.79.68-.58,1.49-.99,2.36-1.21.9-.2,1.82.22,2.25,1.03.26-.89,1.19-1.4,2.08-1.14.22.06.43.17.6.32l1.84-7.17c1.31,2.02,3.27,3.52,5.56,4.28l.21,2.78c1.91-1.1,4.14-1.5,6.31-1.13l-1.6-2.98c1.32-1,2.26-2.42,2.68-4.03.08-.72.34-1.41.76-2,.39-.35.84-.62,1.34-.78,6.12-2.59,10.56-8.29,12.68-14.59,1.91-6.39,2.3-13.13,1.14-19.7,5.59-.41,10.38-4.18,12.08-9.53,1.96-6.58-1.6-10.74-5.56-15.28-4.36-4.94-7.5-10.39-14.49-11.82Z" style="fill: rgb(108, 99, 255);"/><path class="cls-9_easter-egg-2-75" d="M178.27,230.36c-3.57-.74-7.26-.12-10.9,0s-7.57-.3-10.31-2.68c-.06,1.79.59,3.54,1.81,4.86l-4.74.12c.93,2.03,2.2,3.89,3.76,5.5-3.54,3.7-6.33,8.04-8.24,12.79-3.37-.09-6.69.79-9.58,2.54-5.93,3.61-9.39,10.56-15.75,13.42-4.19,1.93-8.99,1.78-13.59,1.6.49,2.01,1.86,3.7,3.73,4.59l-3.78,1.45c.83,1.52,2.39,2.49,4.12,2.56l-2.16,1.1c9.46,7.76,19.43,14.86,29.86,21.26.38.18.7.47.93.83.15.43.2.89.12,1.34-.13,3.86,2.15,7.39,5.72,8.87-.84.67-1.31,1.71-1.25,2.79.68-.58,1.49-.99,2.36-1.21.9-.2,1.82.22,2.25,1.03.26-.89,1.19-1.4,2.08-1.14.22.06.43.17.6.32l1.84-7.17c1.31,2.02,3.27,3.52,5.56,4.28l.21,2.78c1.91-1.1,4.14-1.5,6.31-1.13l-1.6-2.98c1.32-1,2.26-2.42,2.68-4.03.08-.72.34-1.41.76-2,.39-.35.84-.62,1.34-.78,6.12-2.59,10.56-8.29,12.68-14.59,1.91-6.39,2.3-13.13,1.14-19.7,5.59-.41,10.38-4.18,12.08-9.53,1.96-6.58-1.6-10.74-5.56-15.28-4.36-4.94-7.5-10.39-14.49-11.82Z"/><path class="cls-20_easter-egg-2-75 targetColor" d="M172.47,278.51c-4.66,7.5-14.35,10.35-23.19,10.19-5.29-.01-10.52-1.14-15.34-3.31,1.72,2.9,4.58,4.94,7.88,5.64l-4.58.11c7.1,3.08,15.04,3.59,22.48,1.45l-2.15,2.46c4.64-.76,9.68-1.73,12.75-5.29,2.06-2.67,3.16-5.95,3.14-9.33.09-2.08-1.07-6.45.89-7.62-.1,2.04-.75,4.02-1.88,5.72Z" style="fill: rgb(108, 99, 255);"/><path class="cls-20_easter-egg-2-75 targetColor" d="M153.23,325.71c-2.68-.25-5.36.35-7.68,1.72l6.49.95c.7.13,1.41.19,2.12.19.75-.06,1.49-.17,2.23-.34,4.52-.74,9.1.52,13.51,1.77-.51-1.69-2.36-2.54-4.03-3.07-2.78-.87-5.64-1.45-8.53-1.72,4.36-.03,8.71.26,13.03.86-4.46-2.9-10.06-3.19-15.38-3.4-1.17-3.61-1.7-7.41-1.56-11.21,0-.24-1.53-.31-1.73-.27-1.02.21-.89.17-.98.99-.15,1.13.95,3.34,1.21,4.48.66,2.97,1.1,5.99,1.29,9.03Z" style="fill: rgb(108, 99, 255);"/><path class="cls-8_easter-egg-2-75" d="M153.23,325.71c-2.68-.25-5.36.35-7.68,1.72l6.49.95c.7.13,1.41.19,2.12.19.75-.06,1.49-.17,2.23-.34,4.52-.74,9.1.52,13.51,1.77-.51-1.69-2.36-2.54-4.03-3.07-2.78-.87-5.64-1.45-8.53-1.72,4.36-.03,8.71.26,13.03.86-4.46-2.9-10.06-3.19-15.38-3.4-1.17-3.61-1.7-7.41-1.56-11.21,0-.24-1.53-.31-1.73-.27-1.02.21-.89.17-.98.99-.15,1.13.95,3.34,1.21,4.48.66,2.97,1.1,5.99,1.29,9.03Z"/><circle class="cls-7_easter-egg-2-75" cx="183.33" cy="244.7" r="2.7" transform="translate(-87.57 386.46) rotate(-80.78)"/><path class="cls-20_easter-egg-2-75 targetColor" d="M195.78,257.1c-1.36.69-2.86,1.07-4.39,1.11-3.49.29-7.01.19-10.48-.31.66.85,1.47,1.56,2.4,2.09-1.56.17-3.14.25-4.71.24.91,1.32,2.11,2.42,3.5,3.21l-2.68,1.76c3.02,1.65,5.2,4.49,6.04,7.82-.03-1.39.03-2.79.16-4.17-.01-.52.17-1.02.52-1.41.34-.23.73-.36,1.14-.38,4.12-.54,8.6-2.03,10.52-5.72.62-1.19,1.73-4.37,1.07-5.7-.82-1.61-2.11.87-3.1,1.45Z" style="fill: rgb(108, 99, 255);"/></g></svg>