<svg id="_0496_consulting" xmlns="http://www.w3.org/2000/svg" viewBox="0 0 500 500" data-imageid="consulting-34" imageName="Consulting" class="illustrations_image" style="width: 180px;"><defs><style>.cls-1_consulting-34{opacity:.18;}.cls-1_consulting-34,.cls-2_consulting-34,.cls-3_consulting-34,.cls-4_consulting-34{fill:#000001;}.cls-5_consulting-34{fill:#f4a28c;}.cls-2_consulting-34{opacity:.03;}.cls-6_consulting-34,.cls-7_consulting-34{fill:#e6e6e6;}.cls-7_consulting-34{opacity:.3;}.cls-3_consulting-34{opacity:.09;}.cls-8_consulting-34{opacity:.44;}.cls-8_consulting-34,.cls-9_consulting-34{fill:#fff;}.cls-10_consulting-34{fill:#ce8172;opacity:.31;}.cls-9_consulting-34{opacity:.46;}.cls-11_consulting-34{fill:#24285b;}.cls-4_consulting-34{opacity:.08;}.cls-12_consulting-34{fill:#ffd200;}.cls-13_consulting-34{fill:#68e1fd;}</style></defs><path id="bg_consulting-34" class="cls-7_consulting-34" d="m384.99,61.73c49.73,18.69,88.53,70.5,98.92,135.01,8.76,54.36-4.78,121.03-86.1,151.44-83,31.04-315.56,44.61-359.37-43.76C-5.36,216.06,3.04,103.14,91.49,63.72c62-27.63,196.39-38.5,293.51-2Z"/><ellipse id="sd_consulting-34" class="cls-2_consulting-34" cx="250" cy="428.05" rx="243.19" ry="33.51"/><g id="girl_consulting-34"><path class="cls-5_consulting-34" d="m102.43,236.08s.53-3.33-2.02-3.52c-2.54-.19-3.33,4.62-.02,5.67l2.03-2.15Z"/><path class="cls-5_consulting-34" d="m112.14,235.8l1.81,3.75c.45.93-.22,2-1.25,2.01l-3.41.03,2.85-5.8Z"/><g id="girl-2_consulting-34"><path class="cls-12_consulting-34" d="m47.7,299.94s-27.56,13.22-31.16,43.69c-3.59,30.47-13.78,89.31,61.11,85.96,74.89-3.36,110.22-7.52,92.55-64.75-17.66-57.23-122.51-64.89-122.51-64.89Z"/><path class="cls-3_consulting-34" d="m44.92,315.77s-3.21,13.7,9.97,22.39c10.16,6.7,25.79,30.48,37.93,42.54,3.83,3.8,6.01,8.96,5.92,14.35-.04,2.16.88,4.57,3.74,6.91,8.43,6.89,43.78,10.33,63.55-10.86,19.77-21.19-6.29-31.68-6.29-31.68l-86.9-47.03-27.92,3.38Z"/><path class="cls-5_consulting-34" d="m237,419.49s1.85,4.65,6.47,5.7c4.62,1.06,7.13,6.73-2.97,5.81-10.1-.92-15.65.66-14.2-4.89,1.45-5.55.79-6.38.79-6.38l9.9-.24Z"/><path class="cls-5_consulting-34" d="m169.16,415.59s-.77,4.94,2.67,8.2c3.44,3.26,2.71,9.43-5.51,3.49-8.23-5.94-13.81-7.4-9.73-11.43,4.07-4.04,3.93-5.09,3.93-5.09l8.65,4.83Z"/><path class="cls-11_consulting-34" d="m177.94,345.42s61.78.63,61.18,74.31l-14.58,2.47s-2.8-77.8-83.08-40.74l4.19-30.64,32.29-5.39Z"/><path class="cls-3_consulting-34" d="m177.94,345.42s61.78.63,61.18,74.31l-14.58,2.47s-2.8-77.8-83.08-40.74l4.19-30.64,32.29-5.39Z"/><polygon class="cls-12_consulting-34" points="182.84 277.55 188.19 278.99 184.38 274.88 182.84 277.55"/><path class="cls-5_consulting-34" d="m98.57,314.01s10.68,26.96,36.73,22.24c26.06-4.72,35.96-59.42,35.96-59.42,0,0,10.31-6.7,5.32-14.18-4.99-7.48-13.1,8.7-13.1,8.7,0,0-11.23,46.07-35.52,31.13l-29.39,11.53Z"/><path class="cls-3_consulting-34" d="m98.57,314.01s10.68,26.96,36.73,22.24c26.06-4.72,35.96-59.42,35.96-59.42,0,0,10.31-6.7,5.32-14.18-4.99-7.48-13.1,8.7-13.1,8.7,0,0-11.23,46.07-35.52,31.13l-29.39,11.53Z"/><path class="cls-13_consulting-34 targetColor" d="m98.89,259.2l5.64,1.17s43.52,23.63,35.43,47.3c-8.09,23.67,9.59,46.13,9.59,46.13l-37.85,26.66s-49.44-24.56-42.04-92.12c0,0,3.44-31.49,29.24-29.15Z" style="fill: rgb(104, 225, 253);"/><rect class="cls-6_consulting-34" x="176.75" y="267.49" width="7.92" height="67.62" transform="translate(148.4 -48.55) rotate(25.68)"/><polygon class="cls-5_consulting-34" points="96.83 229.52 88.99 257.14 104.53 260.37 103.99 238.97 96.83 229.52"/><path class="cls-10_consulting-34" d="m104.31,243.65s-2.84-.94-4.73-3.64c0,0-.4,5.24,4.72,11.07v-7.43Z"/><path class="cls-5_consulting-34" d="m112.92,230.32s-.78,8.73-3.24,14.19c-1,2.21-3.65,3.21-5.85,2.18-2.73-1.28-6.05-3.8-6.2-8.53l-1.24-7.99s-.6-5.04,4.88-7.67c5.49-2.63,12.39,2.53,11.65,7.82Z"/><rect class="cls-11_consulting-34" x="154.73" y="266.93" width="30.96" height="3.09" transform="translate(157.04 -49.13) rotate(30)"/><path class="cls-1_consulting-34" d="m120.37,365.78l-8.68,14.68s-31.48-15.22-40.5-56.54,20.74-25.18,20.74-25.18l28.44,67.04Z"/><path class="cls-11_consulting-34" d="m111.7,380.47s29.17-59.47,72.3-59.24c43.14.23-12.9,95.95-12.9,95.95l-14.24-5.78s21.18-41.08,15.75-54.29c-5.42-13.22-13.59,77.99-60.92,23.37Z"/><path class="cls-5_consulting-34" d="m86.74,262.54s12.98-6.59,19.57,6.79c6.59,13.38,1.4,70.9,28.16,73.89,26.76,3,40.34-24.86,40.34-24.86,0,0,2.2-11.77,5.9-13.69s6.89,10.39,0,17.57c0,0-11.8,44.34-49.23,45.34-37.43,1-81.68-74.69-44.74-105.05Z"/><path class="cls-11_consulting-34" d="m112.97,219s8.53,10.03-2.51,12.13c-11.04,2.1-13.31,4.08-12.25,15.28s5.43,21.46-9.21,28.47c-14.64,7.01-2.06,18.71-4.75,32.49s-15.58,23.21-32.05,13.85c-16.48-9.36-26.66-33.33-8.99-47.7,17.67-14.38,39.84-17.82,39.84-40.97s18.51-24.34,29.93-13.56Z"/><rect class="cls-13_consulting-34 targetColor" x="171.04" y="319.21" width="11.7" height="6.6" transform="translate(126.49 -41.85) rotate(20.87)" style="fill: rgb(104, 225, 253);"/><rect class="cls-8_consulting-34" x="171.04" y="319.21" width="11.7" height="6.6" transform="translate(126.49 -41.85) rotate(20.87)"/></g></g><g id="boy_consulting-34"><path class="cls-12_consulting-34" d="m434.72,295.79s55.19,9.34,52.63,47.83c-2.03,30.62,13.78,89.31-61.11,85.96-74.89-3.36-110.22-7.52-92.55-64.75,17.66-57.23,101.04-69.04,101.04-69.04Z"/><path class="cls-3_consulting-34" d="m458.97,315.77s3.21,13.7-9.97,22.39c-10.16,6.7-25.79,30.48-37.93,42.54-3.83,3.8-6.01,8.96-5.92,14.35.04,2.16-.88,4.57-3.74,6.91-8.43,6.89-43.78,10.33-63.55-10.86-19.77-21.19,6.29-31.68,6.29-31.68l85.65-59.32c-2.92-1.57,25.65,4.08,29.17,15.66Z"/><path class="cls-5_consulting-34" d="m266.89,419.49s-1.85,4.65-6.47,5.7-7.13,6.73,2.97,5.81c10.1-.92,15.65.66,14.2-4.89-1.45-5.55-.79-6.38-.79-6.38l-9.9-.24Z"/><path class="cls-5_consulting-34" d="m315.26,422.2s-.97,4.91-5.33,6.79c-4.35,1.88-5.79,7.92,3.98,5.17,9.77-2.75,15.51-2.2,13.07-7.39-2.44-5.19-1.94-6.13-1.94-6.13l-9.78,1.56Z"/><path class="cls-11_consulting-34" d="m325.95,345.42s-61.78.63-61.18,74.31l14.58,2.47s2.8-77.8,83.08-40.74l-4.19-30.64-32.29-5.39Z"/><path class="cls-3_consulting-34" d="m325.95,345.42s-61.78.63-61.18,74.31l14.58,2.47s2.8-77.8,83.08-40.74l-4.19-30.64-32.29-5.39Z"/><path class="cls-5_consulting-34" d="m328.18,278.12s-22.03,11.31-29.57,6.13c-7.54-5.18-9.71-33.93-9.71-33.93l-10.41,2.28s-3.97,56.86,13.52,62.75c17.49,5.89,48.07-9.19,48.07-9.19l-11.9-28.04Z"/><path class="cls-13_consulting-34 targetColor" d="m388.36,278.08c-7.26,14.42-23.16,33.76-56.91,37.33l-7.22-36.25s25.67-16.22,52.83-18.21c9.1-.67,15.41,8.99,11.31,17.14Z" style="fill: rgb(104, 225, 253);"/><path class="cls-9_consulting-34" d="m388.36,278.08c-7.26,14.42-23.16,33.76-56.91,37.33l-7.22-36.25s25.67-16.22,52.83-18.21c9.1-.67,15.41,8.99,11.31,17.14Z"/><path class="cls-5_consulting-34" d="m288.4,250.43c.51-.11,1.03-11.11-.3-10.09-1.34,1.02-1.81,3.06-1.81,3.06,0,0,0-7.78-4.01-6.91s-5.36,9.82-3.78,16.1l9.83-1.81"/><path class="cls-5_consulting-34" d="m380.97,220.18s-1.43,10.11-.08,16.96c.55,2.78,3.29,4.61,6.06,4.03,3.44-.73,7.88-2.71,9.3-8.04l3.52-8.75s2.02-5.56-3.51-10c-5.53-4.44-14.73-.41-15.29,5.8Z"/><polygon class="cls-5_consulting-34" points="399.14 225.97 402.63 259.26 384.15 259.87 389.03 235.4 399.14 225.97"/><path class="cls-12_consulting-34" d="m383.48,220.74c1.78.19,5.05.35,9.44-.22,0,0-3.42,4.27-.5,9.33,2.93,5.06,8.22,3.21,8.22,3.21l.53-13.11c.28-3.82-1.54-7.49-4.77-9.54-1.32-.84-2.78-1.68-4.26-2.37-3.69-1.71-9.35.51-12.6-2.22-1.42-1.2-3.62-.42-3.99,1.4-.8,3.95-.43,10.26,4.85,12.73.97.45,2.01.68,3.07.79Z"/><path class="cls-5_consulting-34" d="m391.35,229.49s.29-3.92,3.22-3.46c2.93.46,2.56,6.13-1.48,6.45l-1.74-2.98Z"/><path class="cls-5_consulting-34" d="m380.4,226.6l-3.05,3.78c-.75.93-.28,2.33.88,2.62l3.86.94-1.69-7.34Z"/><path class="cls-10_consulting-34" d="m387.3,242.69s2.48-.37,4.44-2.33c0,0-.42,4.39-5.49,8.48l1.06-6.15Z"/><path class="cls-13_consulting-34 targetColor" d="m426.86,279.69c-5.37-14.87-20.07-24.29-35.87-23.77l-5.91.2s-41.47-.17-44.62,37.58c-3.14,37.75,13.94,67.69,13.94,67.69l55.72,2.03s28.76-50.41,16.73-83.73Z" style="fill: rgb(104, 225, 253);"/><path class="cls-4_consulting-34" d="m398.78,275.54s-7.95,28.03-5.04,55.19c2.91,27.16-4.81,31.92-4.81,31.92l21.2.77s6.31-10.91,8.02-16.65c1.71-5.74,10.91-70.12-19.37-71.23Z"/><path class="cls-13_consulting-34 targetColor" d="m417.94,265.4c12.83,9.81,28.88,29.02,26.13,62.85l-36.96.38s-11.18-28.23-8.1-55.29c1.03-9.07,11.69-13.47,18.94-7.93Z" style="fill: rgb(104, 225, 253);"/><path class="cls-9_consulting-34" d="m417.94,265.4c12.83,9.81,28.88,29.02,26.13,62.85l-36.96.38s-11.18-28.23-8.1-55.29c1.03-9.07,11.69-13.47,18.94-7.93Z"/><path class="cls-5_consulting-34" d="m440.57,328.29s.95,50.04-13.47,78.83l-7.88-1.19s6.52-47.9-6.52-77.36l27.88-.28Z"/><path class="cls-5_consulting-34" d="m427.09,407.12s-3.42,16.45-12.23,10.46c-8.81-5.99,4.34-11.65,4.34-11.65l7.88,1.19Z"/><path class="cls-11_consulting-34" d="m409.56,364.83s-46.53-43.83-89.67-43.6c-43.14.23-9.91,106.97-9.91,106.97l14.24-5.78s1.63-52.1,7.06-65.31c5.42-13.22,26.8,74.01,78.28,7.73Z"/></g><g id="story_consulting-34"><polygon class="cls-6_consulting-34" points="386.25 139.78 322.87 139.78 322.87 151.53 306.39 151.53 306.39 111.34 205.59 111.34 205.59 172.14 306.39 172.14 306.39 154.51 322.87 154.51 322.87 178.01 372.11 178.01 381.57 192.47 381.57 178.01 386.25 178.01 386.25 139.78"/><circle class="cls-3_consulting-34" cx="341.93" cy="159.62" r="3.85"/><circle class="cls-3_consulting-34" cx="354.56" cy="159.62" r="3.85"/><circle class="cls-3_consulting-34" cx="367.19" cy="159.62" r="3.85"/><circle class="cls-3_consulting-34" cx="236.93" cy="139.04" r="5.11"/><circle class="cls-3_consulting-34" cx="253.69" cy="139.04" r="5.11"/><circle class="cls-3_consulting-34" cx="270.44" cy="139.04" r="5.11"/><rect class="cls-6_consulting-34" x="69.49" y="168.29" width="71.54" height="23.64"/><rect class="cls-6_consulting-34" x="100.85" y="135.01" width="71.54" height="23.64"/></g></svg>