<svg version="1.1" id="Layer_1" xmlns="http://www.w3.org/2000/svg" xmlns:xlink="http://www.w3.org/1999/xlink" x="0px" y="0px" viewBox="0 0 500 500" style="width: 135px;" xml:space="preserve" data-imageid="user-avatar-43" imageName="User Avatar" class="illustrations_image">
<style type="text/css">
	.st0_user-avatar-43{fill:#68E1FD;}
	.st1_user-avatar-43{fill:#231F20;}
	.st2_user-avatar-43{fill:#FFFFFF;}
	.st3_user-avatar-43{fill:#D1D3D4;}
</style>
<g id="Male_user-avatar-43">
	<path class="st0_user-avatar-43 targetColor" d="M211.8,261.9c-16.5,20.7-40.5,34-66.8,36.9c-7.3,0.8-14.6,0.8-21.9,0c-26.3-2.9-50.4-16.2-66.8-36.9&#10;&#9;&#9;c12-8.3,27.6-17.1,45.3-22.3c10.5-3.2,21.4-4.9,32.4-4.9c11,0.1,22,1.7,32.5,4.9C184.2,244.9,199.8,253.6,211.8,261.9z" style="fill: rgb(108, 99, 255);"/>
	<path class="st1_user-avatar-43" d="M154.7,246.5l-9.7,52.3c-0.8,0.1-1.6,0.2-2.4,0.2c-2.8,0.2-5.6,0.4-8.5,0.4c-3.2,0-6.4-0.1-9.6-0.5l-1.3-0.1&#10;&#9;&#9;l-10.9-52.3C122.4,243.5,144.5,243.5,154.7,246.5z"/>
	<ellipse class="st2_user-avatar-43" cx="134" cy="172.2" rx="38.7" ry="44.4"/>
	<path class="st1_user-avatar-43" d="M134,217.3c-21.8,0-39.4-20.2-39.4-45.1c0-26.4,2.8-45.1,39.4-45.1s39.4,18.7,39.4,45.1&#10;&#9;&#9;C173.4,197.1,155.8,217.3,134,217.3z M134,128.5c-35.3,0-38,17.3-38,43.7c0,24.1,17,43.7,38,43.7s38-19.6,38-43.7&#10;&#9;&#9;C172,145.8,169.4,128.6,134,128.5L134,128.5z"/>
	<path class="st2_user-avatar-43" d="M158.4,187.5c1.9-11.8,21.5-14.7,20.5-0.8c-0.3,4.8-1.9,9.7-5.2,13.1s-8.8,5-13.2,3.1"/>
	<path class="st1_user-avatar-43" d="M164.7,204.4c-1.5,0-3-0.3-4.4-0.9c-0.4-0.2-0.5-0.6-0.4-1s0.6-0.5,1-0.4l0,0c3.9,1.7,8.9,0.5,12.4-2.9&#10;&#9;&#9;c3.7-3.8,4.8-8.9,5-12.6c0.3-4.8-2-8-6.3-8.5c-5.2-0.6-11.8,3.1-12.8,9.4c-0.1,0.4-0.5,0.6-0.9,0.5c-0.4-0.1-0.6-0.4-0.6-0.8&#10;&#9;&#9;c1.1-7.1,8.5-11.3,14.4-10.6c4,0.4,8,3.3,7.6,10c-0.3,3.9-1.4,9.5-5.4,13.5C171.7,202.8,168.3,204.3,164.7,204.4z"/>
	<path class="st2_user-avatar-43" d="M109.6,187.5c-1.9-11.8-21.5-14.7-20.5-0.8c0.3,4.8,1.9,9.7,5.2,13.1s8.8,5,13.2,3.1"/>
	<path class="st1_user-avatar-43" d="M103.3,204.4c-3.6-0.1-7.1-1.5-9.6-4.1c-4-4.1-5.2-9.6-5.4-13.5c-0.5-6.7,3.6-9.6,7.6-10&#10;&#9;&#9;c5.9-0.7,13.3,3.5,14.4,10.6c0.1,0.4-0.2,0.8-0.6,0.8c-0.4,0.1-0.8-0.2-0.8-0.6c-1-6.3-7.6-10-12.8-9.4c-4.3,0.5-6.6,3.7-6.3,8.5&#10;&#9;&#9;c0.2,3.7,1.3,8.9,5,12.6c3.4,3.5,8.5,4.7,12.3,2.9c0.4-0.2,0.8,0,0.9,0.3c0,0,0,0,0,0c0.2,0.4,0,0.8-0.4,0.9&#10;&#9;&#9;C106.3,204.1,104.8,204.4,103.3,204.4z"/>
	<path class="st2_user-avatar-43" d="M112.2,246.5c0,0,5.3,11.6,20.8,11.6s21.8-11.6,21.8-11.6l-2.1-45.4h-38.4L112.2,246.5z"/>
	<path class="st1_user-avatar-43" d="M133,258.8c-15.8,0-21.4-11.9-21.5-12c0-0.1-0.1-0.2-0.1-0.3l2.1-45.4c0-0.4,0.3-0.7,0.7-0.7h38.4&#10;&#9;&#9;c0.4,0,0.7,0.3,0.7,0.7l2.1,45.4c0,0.1,0,0.3-0.1,0.4C150.5,254.4,142,259,133,258.8z M112.9,246.4c0.7,1.4,6,11,20.1,11&#10;&#9;&#9;c8.4,0.2,16.4-4,21-11l-2-44.5h-37L112.9,246.4z"/>
	<path class="st1_user-avatar-43" d="M114.2,220.5c2.7,4.3,7.1,7.7,11.6,10.2c7.6,4.2,19,8.9,28.2,7.5l-1.5-19.2c-6.8,0.8-13.6,0.9-20.4,0.1&#10;&#9;&#9;c-6-0.5-12.1-1.1-17.6-3.4C113.7,215.4,113.1,218.7,114.2,220.5z"/>
	<path class="st1_user-avatar-43" d="M150.6,239.2c-9.3,0-19.4-4.8-25-7.9c-5.5-3-9.4-6.5-11.9-10.4c-1.1-1.7-0.9-4.4-0.1-5.4&#10;&#9;&#9;c0.3-0.4,0.9-0.5,1.3-0.3c5.5,2.3,11.8,2.9,17.4,3.3c6.7,0.8,13.5,0.7,20.2-0.1c0.2,0,0.4,0,0.5,0.1c0.1,0.1,0.2,0.3,0.3,0.5&#10;&#9;&#9;l1.5,19.2c0,0.4-0.2,0.7-0.6,0.7C153,239.1,151.8,239.2,150.6,239.2z M114.6,216.5c-0.4,1.2-0.3,2.5,0.3,3.7l0,0&#10;&#9;&#9;c2.3,3.7,6.1,7,11.4,9.9c6,3.4,17.5,8.7,27.1,7.5l-1.4-17.8c-6.6,0.7-13.2,0.7-19.8,0C126.5,219.4,120.2,218.8,114.6,216.5&#10;&#9;&#9;L114.6,216.5z M114.4,216.4L114.4,216.4z"/>
	<path class="st2_user-avatar-43" d="M132.4,223.6h3.2c15,0,27.1-12.1,27.1-27.1c0,0,0,0,0,0v-42.9c0,0-9.4,2.7-28.7,2.7s-28.7-2.7-28.7-2.7v42.9&#10;&#9;&#9;C105.3,211.4,117.5,223.6,132.4,223.6z"/>
	<path class="st1_user-avatar-43" d="M162.7,153.6v42.9c0,15-12.1,27.1-27.1,27.1c0,0,0,0,0,0h-3.2c-15,0-27.1-12.1-27.1-27.1v-42.9&#10;&#9;&#9;c0,0,9.4,2.7,28.7,2.7S162.7,153.6,162.7,153.6 M105.3,152.2c-0.3,0-0.6,0.1-0.9,0.3c-0.4,0.3-0.6,0.7-0.6,1.2v42.9&#10;&#9;&#9;c0,15.7,12.8,28.5,28.5,28.5h3.2c15.8,0,28.5-12.8,28.5-28.5v-42.9c0-0.8-0.6-1.4-1.4-1.4c-0.1,0-0.3,0-0.4,0.1&#10;&#9;&#9;c-0.1,0-9.5,2.6-28.3,2.6s-28.2-2.6-28.3-2.6C105.6,152.2,105.5,152.1,105.3,152.2z"/>
	<path class="st1_user-avatar-43" d="M134.4,196.8c-1.3,0-2.6-0.1-3.9-0.2c-0.5-0.1-1-0.4-1.3-0.9c-2-3.3,3.3-17.5,4.4-20.4&#10;&#9;&#9;c0.1-0.4,0.6-0.6,0.9-0.4c0,0,0,0,0,0c0.4,0.1,0.6,0.5,0.4,0.9c0,0,0,0,0,0c-2.4,6.3-5.7,17-4.5,19.1c0.1,0.1,0.2,0.2,0.2,0.2&#10;&#9;&#9;c2.6,0.3,5.1,0.3,7.7,0c0.4,0,0.8,0.2,0.8,0.6s-0.2,0.8-0.6,0.8C137.2,196.7,135.8,196.8,134.4,196.8z"/>
	<path class="st1_user-avatar-43" d="M134,300c-55.3,0-100.1-44.8-100.1-100.1c0-55.3,44.8-100.1,100.1-100.1s100.1,44.8,100.1,100.1c0,0,0,0,0,0.1&#10;&#9;&#9;C234,255.2,189.2,300,134,300z M134,101.1c-54.6,0.1-98.8,44.3-98.8,98.9c0,54.6,44.2,98.8,98.8,98.8c54.6,0,98.8-44.2,98.8-98.8&#10;&#9;&#9;S188.6,101.2,134,101.1L134,101.1z"/>
	<polygon class="st2_user-avatar-43" points="133.5,270.1 126.2,264.4 133.5,258.8 140.8,264.4 &#9;"/>
	<path class="st2_user-avatar-43" d="M142.5,299c-2.8,0.2-5.6,0.4-8.5,0.4c-3.2,0-6.4-0.1-9.6-0.5l6.6-30.8l0.1-0.4h4.8l0.1,0.4L142.5,299z"/>
	<path class="st1_user-avatar-43" d="M181.2,288h-0.1c-0.4-0.1-0.7-0.4-0.6-0.8c0,0,0,0,0,0l3.4-25.9c0.1-0.4,0.4-0.7,0.8-0.6&#10;&#9;&#9;c0.4,0.1,0.7,0.4,0.6,0.8l-3.4,25.9C181.8,287.7,181.5,288,181.2,288z"/>
	<path class="st1_user-avatar-43" d="M86.8,288c-0.4,0-0.7-0.3-0.7-0.6l-3.4-25.8c-0.1-0.4,0.2-0.8,0.6-0.8c0.4-0.1,0.8,0.2,0.8,0.6l3.4,25.9&#10;&#9;&#9;c0,0.4-0.2,0.7-0.6,0.8H86.8z"/>
</g>
<g id="Female_user-avatar-43">
	<path class="st2_user-avatar-43" d="M404.7,172.2c0,24.5,60.7,120.5-38.7,120.5s-38.7-96-38.7-120.5s1.6-44.4,38.7-44.4S404.7,147.7,404.7,172.2z"/>
	<path class="st1_user-avatar-43" d="M366,293.4c-24.9,0-41.9-6.1-50.6-18.2c-14.7-20.4-3.5-53.7,4.6-78c3.5-10.5,6.6-19.6,6.6-25&#10;&#9;&#9;c0-26.4,2.8-45.1,39.4-45.1s39.5,18.7,39.5,45.1c0,5.4,3,14.5,6.6,25c8.1,24.3,19.3,57.6,4.6,78C407.9,287.3,390.9,293.4,366,293.4&#10;&#9;&#9;z M366,128.5c-35.4,0-38,17.3-38,43.7c0,5.6-3.1,14.8-6.7,25.5c-8,24-19,56.9-4.8,76.7C325,286.1,341.6,292,366,292&#10;&#9;&#9;s41-5.9,49.5-17.6c14.3-19.8,3.2-52.7-4.8-76.7c-3.6-10.7-6.7-19.9-6.7-25.5C404,145.8,401.4,128.6,366,128.5L366,128.5z"/>
	<path class="st0_user-avatar-43 targetColor" d="M443.8,261.9c-16.5,20.7-40.5,34-66.8,36.9c-7.3,0.8-14.6,0.8-21.9,0c-26.3-2.9-50.4-16.2-66.8-36.9&#10;&#9;&#9;c12-8.3,27.6-17.1,45.3-22.3c21.2-6.6,43.8-6.6,65,0C416.2,244.9,431.8,253.6,443.8,261.9z" style="fill: rgb(108, 99, 255);"/>
	<path class="st2_user-avatar-43" d="M348,235.5c0-0.1-20.7,4.5-20.4,6s23,45.8,24.3,45.8s14.1-7.8,14.1-7.8L348,235.5z"/>
	<path class="st1_user-avatar-43" d="M351.9,288c-0.6,0-1.3,0-13.2-22.8c-4.8-9.2-11.6-22.6-11.9-23.6c-0.1-0.4,0.1-0.8,0.5-1.1&#10;&#9;&#9;c1.5-1.2,20-6.2,21-5.7c0.2,0.1,0.3,0.2,0.3,0.4l18,44c0.1,0.3,0,0.7-0.3,0.9C362.5,282.5,353.2,288,351.9,288z M328.4,241.6&#10;&#9;&#9;c1.8,4.3,21,41.7,23.7,44.9c1.4-0.5,7.4-3.9,13-7.3l-17.6-42.9C344.4,237,330.5,240.3,328.4,241.6L328.4,241.6z"/>
	<path class="st2_user-avatar-43" d="M383.5,235.5c0-0.1,20.7,4.5,20.4,6s-23,45.8-24.3,45.8s-14.1-7.8-14.1-7.8L383.5,235.5z"/>
	<path class="st1_user-avatar-43" d="M379.6,288c-1.4,0-10.6-5.5-14.5-7.9c-0.3-0.2-0.4-0.6-0.3-0.9l18-44c0.1-0.2,0.2-0.3,0.3-0.4&#10;&#9;&#9;c1-0.5,19.4,4.5,21,5.7c0.4,0.2,0.5,0.6,0.5,1.1c-0.2,1-7,14.4-11.9,23.6C380.9,288,380.2,288,379.6,288z M366.4,279.2&#10;&#9;&#9;c5.5,3.4,11.5,6.8,13,7.3c2.7-3.2,21.9-40.6,23.7-44.9c-2.1-1.3-16-4.6-19.1-5.3L366.4,279.2z"/>
	<path class="st1_user-avatar-43" d="M386.7,246.5l-20.7,33l-21.8-33C354.4,243.5,376.5,243.5,386.7,246.5z"/>
	<path class="st2_user-avatar-43" d="M390.4,187.5c1.9-11.8,21.5-14.7,20.5-0.8c-0.3,4.8-1.9,9.7-5.2,13.1s-8.8,5-13.2,3.1"/>
	<path class="st1_user-avatar-43" d="M396.7,204.4c-1.5,0-3-0.3-4.4-0.9c-0.4-0.2-0.5-0.6-0.4-0.9c0.2-0.4,0.6-0.5,0.9-0.4c0,0,0,0,0,0&#10;&#9;&#9;c3.9,1.7,9,0.5,12.4-2.9c3.7-3.8,4.8-8.9,5-12.6c0.3-4.8-2-8-6.3-8.5c-5.2-0.6-11.8,3.1-12.8,9.4c-0.1,0.4-0.4,0.7-0.8,0.6&#10;&#9;&#9;c-0.4-0.1-0.7-0.4-0.6-0.8c1.1-7.1,8.5-11.3,14.4-10.6c4,0.4,8,3.3,7.6,10c-0.3,3.9-1.4,9.5-5.4,13.5&#10;&#9;&#9;C403.7,202.8,400.3,204.3,396.7,204.4z"/>
	<path class="st2_user-avatar-43" d="M341.5,187.5c-1.9-11.8-21.5-14.7-20.5-0.8c0.3,4.8,1.9,9.7,5.2,13.1s8.8,5,13.2,3.1"/>
	<path class="st1_user-avatar-43" d="M335.3,204.4c-3.6-0.1-7.1-1.6-9.6-4.1c-4-4.1-5.2-9.6-5.4-13.5c-0.5-6.7,3.6-9.6,7.6-10&#10;&#9;&#9;c5.9-0.7,13.3,3.5,14.4,10.6c0.1,0.4-0.2,0.8-0.6,0.8c0,0,0,0,0,0c-0.4,0.1-0.8-0.2-0.8-0.6c0,0,0,0,0,0c-1-6.3-7.6-10-12.8-9.4&#10;&#9;&#9;c-4.3,0.5-6.6,3.7-6.3,8.5c0.3,3.7,1.3,8.9,5,12.6c3.4,3.5,8.5,4.7,12.4,2.9c0.4-0.2,0.8,0,1,0.4c0.2,0.4,0,0.8-0.4,1l0,0&#10;&#9;&#9;C338.3,204.1,336.8,204.4,335.3,204.4z"/>
	<path class="st2_user-avatar-43" d="M344.2,246.5c0,0,5.3,11.6,20.8,11.6c12.4,0,21.8-11.6,21.8-11.6l-2.1-45.4h-38.4L344.2,246.5z"/>
	<path class="st1_user-avatar-43" d="M365,258.8c-15.8,0-21.4-11.9-21.5-12c0-0.1-0.1-0.2-0.1-0.3l2.1-45.4c0-0.4,0.3-0.7,0.7-0.7h38.4&#10;&#9;&#9;c0.4,0,0.7,0.3,0.7,0.7l2.1,45.4c0,0.2,0,0.4-0.2,0.5C386.9,247.5,377.5,258.8,365,258.8z M344.9,246.4c0.7,1.4,6,11,20.1,11&#10;&#9;&#9;c11,0,19.7-9.6,21-11.1l-2-44.4h-37.1L344.9,246.4z"/>
	<path class="st1_user-avatar-43" d="M346.2,220.5c2.7,4.3,7.1,7.7,11.6,10.2c7.6,4.2,19,8.9,28.2,7.5l-1.5-19.2c-6.8,0.8-13.6,0.9-20.4,0.1&#10;&#9;&#9;c-6-0.5-12.1-1.1-17.6-3.4C345.7,215.4,345,218.7,346.2,220.5z"/>
	<path class="st1_user-avatar-43" d="M382.5,239.2c-9.3,0-19.4-4.8-25-7.9s-9.5-6.5-11.9-10.4c-1.1-1.7-0.9-4.4-0.1-5.4c0.3-0.4,0.9-0.5,1.3-0.3&#10;&#9;&#9;c5.5,2.3,11.8,2.9,17.4,3.3c6.7,0.8,13.5,0.7,20.2-0.1c0.2,0,0.4,0,0.5,0.1c0.2,0.1,0.2,0.3,0.3,0.5l1.5,19.2&#10;&#9;&#9;c0,0.4-0.2,0.7-0.6,0.7C385,239.1,383.8,239.2,382.5,239.2z M346.5,216.5c-0.4,1.2-0.3,2.5,0.3,3.7l0,0c2.3,3.7,6.1,7,11.4,9.9&#10;&#9;&#9;c6.1,3.4,17.5,8.7,27.1,7.5l-1.4-17.8c-6.6,0.7-13.2,0.7-19.8,0C358.5,219.4,352.2,218.8,346.5,216.5L346.5,216.5z"/>
	<path class="st1_user-avatar-43" d="M366.4,196.8c-1.3,0-2.6-0.1-3.9-0.2c-0.5-0.1-1-0.4-1.3-0.9c-2-3.3,3.3-17.5,4.4-20.4&#10;&#9;&#9;c0.1-0.4,0.6-0.6,0.9-0.4c0.4,0.1,0.6,0.6,0.4,0.9c-2.4,6.3-5.7,17-4.5,19.1c0,0.1,0.1,0.2,0.2,0.2c2.6,0.3,5.1,0.3,7.7,0&#10;&#9;&#9;c0.4-0.1,0.7,0.2,0.8,0.6c0,0,0,0,0,0c0.1,0.4-0.2,0.8-0.6,0.8c0,0,0,0,0,0C369.2,196.7,367.8,196.8,366.4,196.8z"/>
	<path class="st2_user-avatar-43" d="M394.7,165.3v31.2c0,15-12.1,27.1-27.1,27.1c0,0,0,0,0,0h-3.2c-15,0-27.1-12.1-27.1-27.1v0v-29.6l17-1.4&#10;&#9;&#9;l2-13.5l4.3,15.3l12.1-1.6c1.2-5.4,0-17.1-0.2-17.6l8.7,16.4L394.7,165.3z"/>
	<path class="st1_user-avatar-43" d="M367.6,224.3h-3.2c-15.4,0-27.8-12.4-27.8-27.8v-29.6c0-0.4,0.3-0.7,0.7-0.7l16.5-1.4l1.9-13&#10;&#9;&#9;c0-0.3,0.3-0.6,0.7-0.6c0.3,0,0.7,0.2,0.7,0.5l4.1,14.7l11-1.4c1-5.4-0.2-16.2-0.3-16.8c-0.1-0.4,0.1-0.7,0.5-0.8&#10;&#9;&#9;c0.3-0.1,0.7,0,0.9,0.3l8.5,16l13,0.9c0.4,0,0.7,0.3,0.7,0.7v31.2C395.4,211.8,383,224.3,367.6,224.3L367.6,224.3z M338,167.6v28.9&#10;&#9;&#9;c0,14.6,11.8,26.3,26.4,26.4h3.2c14.5,0,26.3-11.8,26.4-26.4V166l-12.7-0.9c-0.3,0-0.5-0.2-0.6-0.4l-7-13.1&#10;&#9;&#9;c0.3,4.1,0.6,10.5-0.2,14.2c-0.1,0.3-0.3,0.5-0.6,0.6l-12.1,1.6c-0.4,0.1-0.7-0.2-0.8-0.5l-3.4-12l-1.5,10.1c0,0.3-0.3,0.6-0.7,0.6&#10;&#9;&#9;L338,167.6z"/>
	<path class="st1_user-avatar-43" d="M366,300c-55.3,0-100.1-44.8-100.1-100.1S310.7,99.8,366,99.8s100.1,44.8,100.1,100.1&#10;&#9;&#9;c0,22.7-7.7,44.6-21.8,62.4C425.3,286.2,396.5,300.1,366,300z M366,101.1c-54.5,0.1-98.7,44.3-98.8,98.8&#10;&#9;&#9;c0,54.6,44.2,98.8,98.8,98.8s98.8-44.2,98.8-98.8C464.7,145.4,420.5,101.2,366,101.1L366,101.1z"/>
	<path class="st1_user-avatar-43" d="M413.2,288L413.2,288c-0.5,0-0.8-0.4-0.7-0.8c0,0,0,0,0,0l3.4-25.9c0.1-0.4,0.4-0.7,0.8-0.6&#10;&#9;&#9;c0.4,0.1,0.7,0.4,0.6,0.8c0,0,0,0,0,0l-3.4,25.9C413.8,287.7,413.5,288,413.2,288z"/>
	<path class="st1_user-avatar-43" d="M318.8,288c-0.4,0-0.7-0.3-0.7-0.6l-3.4-25.9c0-0.4,0.3-0.7,0.7-0.8c0.4,0,0.7,0.2,0.7,0.6l3.4,25.9&#10;&#9;&#9;c0.1,0.4-0.2,0.8-0.6,0.8c0,0,0,0,0,0L318.8,288z"/>
</g>
<g id="Male_Symbol_user-avatar-43">
	<path class="st3_user-avatar-43" d="M128.8,390.4c-17.6,0-31.8-14.3-31.8-31.8c0-17.6,14.3-31.8,31.8-31.8s31.8,14.3,31.8,31.8&#10;&#9;&#9;c0,8.4-3.4,16.5-9.3,22.5l0,0C145.3,387,137.2,390.4,128.8,390.4z M128.8,330.9c-15.3,0-27.6,12.4-27.6,27.6s12.4,27.6,27.6,27.6&#10;&#9;&#9;c15.3,0,27.6-12.4,27.6-27.6c0-7.3-2.9-14.4-8.1-19.5C143.2,333.8,136.1,330.9,128.8,330.9z M149.8,379.6L149.8,379.6z"/>
	<path class="st3_user-avatar-43" d="M149.8,339.6c-1.2,0-2.1-1-2.1-2.1c0-0.5,0.2-1.1,0.6-1.5l8.3-8.3c0.8-0.8,2.2-0.8,3,0s0.8,2.2,0,3l-8.3,8.3&#10;&#9;&#9;C150.9,339.4,150.4,339.7,149.8,339.6z"/>
	<path class="st3_user-avatar-43" d="M160,339.1c-1.1,0-2-0.8-2.1-1.9l-0.6-7l-7.2-0.7c-1.2-0.1-2-1.2-1.9-2.3s1.2-2,2.3-1.9l8.9,0.9&#10;&#9;&#9;c1,0.1,1.8,0.9,1.9,1.9l0.8,8.8c0.1,1.2-0.8,2.2-1.9,2.3L160,339.1z"/>
</g>
<g id="Female_Symbol_user-avatar-43">
	<path class="st3_user-avatar-43" d="M366,383.3c-17.6,0-31.8-14.3-31.8-31.8s14.3-31.8,31.8-31.8s31.8,14.3,31.8,31.8v0&#10;&#9;&#9;C397.8,369,383.6,383.3,366,383.3z M366,323.8c-15.3,0-27.6,12.4-27.6,27.6c0,15.3,12.4,27.6,27.6,27.6c15.3,0,27.6-12.4,27.6-27.6&#10;&#9;&#9;C393.6,336.2,381.3,323.8,366,323.8L366,323.8z"/>
	<path class="st3_user-avatar-43" d="M366,400.1c-1.2,0-2.1-0.9-2.1-2.1l0,0v-16.8c0-1.2,0.9-2.1,2.1-2.1s2.1,0.9,2.1,2.1V398&#10;&#9;&#9;C368.1,399.2,367.2,400.1,366,400.1C366,400.1,366,400.1,366,400.1z"/>
	<path class="st3_user-avatar-43" d="M373,394.1h-14c-1.2,0-2.1-0.9-2.1-2.1s0.9-2.1,2.1-2.1h14c1.2,0,2.1,0.9,2.1,2.1S374.2,394.1,373,394.1z"/>
</g>
</svg>