<svg id="_0351_police" xmlns="http://www.w3.org/2000/svg" viewBox="0 0 500 500" data-imageid="police-29" imageName="Police" class="illustrations_image" style="width: 215px;"><defs><style>.cls-1_police-29{fill:#fff;}.cls-2_police-29{fill:#f4a28c;}.cls-3_police-29{opacity:.46;}.cls-3_police-29,.cls-4_police-29,.cls-5_police-29,.cls-6_police-29{fill:none;}.cls-7_police-29{fill:#a5a5a5;}.cls-8_police-29{fill:#e6e6e6;}.cls-4_police-29{opacity:.03;}.cls-5_police-29{opacity:.08;}.cls-6_police-29{opacity:.3;}.cls-9_police-29{fill:#24285b;}.cls-10_police-29{fill:#000001;}.cls-11_police-29{fill:#ffd200;}.cls-12_police-29{fill:#68e1fd;}</style></defs><g id="bg_police-29"><g class="cls-6_police-29"><path class="cls-8_police-29" d="m89.78,106.44c-41.18,31.78-65.58,90.1-61.71,150.99,1.98,31.14,11.11,61.18,35.25,77.58,64.38,43.75,345.45,44.49,387.06-32.81,41.6-77.3,26.12-187.15-64.34-232.91C307.62,29.62,196.12,24.38,89.78,106.44Z"/></g><g class="cls-4_police-29"><ellipse class="cls-10_police-29" cx="250" cy="447.26" rx="226.78" ry="17.66"/></g><path class="cls-8_police-29" d="m105.74,443.53s12.81-19.65-6.3-25.07c-19.11-5.42,4.6-31.89-13.18-35.37-17.78-3.48-14.82,24.53-14.82,24.53,0,0-12.28-11.29-20.75-1.81-8.47,9.49,3.39,19.89,3.39,19.89,0,0-17.11,6.3-6.44,17.83h58.09Z"/><path class="cls-7_police-29" d="m80.06,446.14s8.14-14.84,20.12-13.02c11.99,1.83,10.7,13.02,10.7,13.02h-30.83Z"/><path class="cls-8_police-29" d="m424.29,445.71c1.44-3.48,3.22-6.8,5.31-9.89,1.18-1.75,2.63-3.54,4.61-3.96,2.65-.56,5.1,1.49,7.12,3.4.38-4.3,2.98-8.3,6.62-10.2,1.12-.58,2.37-.98,3.59-.77,1.78.3,3.2,1.86,3.93,3.62s.9,3.72,1.06,5.63c1.91-2.44,4.91-5.12,7.47-3.49.84.53,1.4,1.45,1.83,2.38,2.01,4.37,1.68,9.5,1.3,14.36-.47,0-.94.02-1.41.02l-41.44-1.1Z"/></g><g id="dog_police-29"><path class="cls-9_police-29" d="m384.96,356.63s7.06-9.86,18.53-5.6c9.54,3.54,13.45,11.67,21.19,11.23,3.23-.18,5.83,2.69,5.29,5.88-.77,4.56-3.55,9.18-12.15,6.93-15.51-4.05-9.67,12.29-23.75,5.93-14.09-6.36-17.28-11.52-9.11-24.37Z"/><polygon class="cls-9_police-29" points="389.7 358.39 379.12 340.29 396 353.64 389.7 358.39"/><polygon class="cls-9_police-29" points="394.92 355.56 391.57 334.86 402.51 353.4 394.92 355.56"/><circle class="cls-1_police-29" cx="402.2" cy="358.14" r="2.06"/><polygon class="cls-11_police-29" points="381.62 362.96 406.08 381.49 400.22 388.1 375.28 369.73 381.62 362.96"/><path class="cls-9_police-29" d="m375.28,369.73s-20.69,19.52-45.68,12.76c-24.99-6.76-36.16,15.57-27.65,26.2,8.51,10.63,108.8,26.89,98.27-20.59"/><path class="cls-9_police-29" d="m312.92,394.97s-34.21-.48-33.42-45.01c0,0-25.69,49.59,33.42,53.57v-8.57Z"/><path class="cls-9_police-29" d="m339.06,407.26s9.04,22.33-14.89,22.86c-23.93.53-18.08,15.22-18.08,15.22h-6.96s-4.16-16.96,5.92-21.41c10.08-4.45-3.1-15.25-3.1-15.25,0,0,14.78-25.89,37.11-1.43Z"/><path class="cls-9_police-29" d="m400.98,394.97l1.98,10.54c1.5,8,5.81,15.19,12.14,20.3l10.64,8.57-2.66,3.1-22-9.63c-2.94-1.29-5.38-3.48-6.98-6.26l-10.37-18.05,17.25-8.57Z"/><path class="cls-9_police-29" d="m398.5,400.54l-4.89,9.54c-3.71,7.24-4.71,15.57-2.83,23.48l3.16,13.29-4,.82-11.5-21.08c-1.54-2.81-2.13-6.05-1.69-9.22l2.85-20.62,18.89,3.79Z"/><path class="cls-9_police-29" d="m353.48,413.71s1.4,13.56-6.78,20.94c-8.18,7.38-6.78,13.03-6.78,13.03h-5.98s-1.17-3.84.04-9.16c1.32-5.77-.25-11.83-3.89-16.51l-5.52-7.1,28.91-1.2Z"/></g><g id="police_police-29"><path class="cls-9_police-29" d="m211.25,105.52c.47-.32,1.26-4.73,3.47-3.94s19.87,18.71,17.03,20.63c-2.84,1.92-4.41,2.71-5.99,1.45s-14.51-18.13-14.51-18.13Z"/><rect class="cls-9_police-29" x="205.68" y="253.64" width="21.76" height="28.38" rx="5.04" ry="5.04" transform="translate(-24.29 21.62) rotate(-5.41)"/><polygon class="cls-9_police-29" points="309.37 198.06 307.66 203.54 322.39 208.09 325.57 193.62 309.37 198.06"/><path class="cls-9_police-29" d="m316.5,182.37l1.92-4.22c2.42-5.31,9-7.22,13.88-4.01l24.51,16.09c2.02,1.33,2.51,4.08,1.06,6.02l-.4.54c-2.17,2.9-6.06,3.9-9.35,2.41l-19.26-8.71-12.35-8.11Z"/><path class="cls-12_police-29 targetColor" d="m161.72,167.29s37.8,78.04,69.33,75.14c31.53-2.9,76.98-45.06,76.98-45.06l-19.64-10.13s-63.39,48.33-75.46-36.55c-10.33-72.64-51.21,16.6-51.21,16.6Z" style="fill: rgb(108, 99, 255);"/><g class="cls-5_police-29"><path class="cls-10_police-29" d="m161.72,167.29s37.8,78.04,69.33,75.14c31.53-2.9,76.98-45.06,76.98-45.06l-19.64-10.13s-63.39,48.33-75.46-36.55c-10.33-72.64-51.21,16.6-51.21,16.6Z"/></g><path class="cls-9_police-29" d="m273.71,439.45l13.22,4.25c2.34.75,2.4,4.03.1,4.88l-13.01,4.78c-3.84,1.41-8.09-.56-9.5-4.39l-1.99-5.41,11.18-4.11Z"/><path class="cls-9_police-29" d="m85.12,416.37l-.61,13.87c-.11,2.45-3.25,3.38-4.68,1.39l-8.05-11.28c-2.37-3.33-1.6-7.95,1.73-10.32l4.69-3.35,6.92,9.7Z"/><polygon class="cls-2_police-29" points="188.8 84.44 184.26 105.72 164.92 106.37 178 72.56 188.8 84.44"/><path class="cls-2_police-29" d="m183.28,52.53c7.38-5.61,18.1-1.33,20.13,7.71,2.23,9.92,3.46,24.34-7.96,25.07-17.49,1.12-19.65-21.47-19.65-21.47,0,0,1.89-7.06,7.49-11.31Z"/><path class="cls-9_police-29" d="m192.26,63.47c-.5.06-1.04.14-1.39.5-.18.18-.3.43-.38.67-.4,1.24.06,2.67,1,3.57s2.29,1.3,3.59,1.24c2.1-.1,6.11-2.36,5.39-5.02-.64-2.37-6.49-1.14-8.2-.95Z"/><path class="cls-9_police-29" d="m201.68,62.92c-.5.06-1.04.14-1.39.5-.18.18-.3.43-.38.67-.4,1.24.06,2.67,1,3.57s2.29,1.3,3.59,1.24c2.1-.1,6.11-2.36,5.39-5.02-.64-2.37-6.49-1.14-8.2-.95Z"/><polygon class="cls-9_police-29" points="190.86 63.96 181.62 65.67 181.62 67.68 192.89 66.21 190.86 63.96"/><path class="cls-12_police-29 targetColor" d="m107.8,127.6c5.74-12.39,16.74-21.56,29.88-25.29,25.1-7.12,72.62-11.23,86.28,12.36,18.71,32.3-12.6,146.55-12.6,146.55l-84.08,5.23s-44.91-84.03-19.49-138.85Z" style="fill: rgb(108, 99, 255);"/><path class="cls-9_police-29" d="m192.45,262.77l-2.06-.88c15.25-35.87,2.43-152.62,2.3-153.8l2.23-.25c.54,4.82,13.02,118.51-2.46,154.92Z"/><g class="cls-5_police-29"><path class="cls-10_police-29" d="m144.98,100.23s-41.23,125.91,72.07,136.05l-5.68,24.95-84.08,5.23s-28.87-46.92-26.62-112.16c0,0,1.21-32.26,24.15-46.17,0,0,8.77-6.25,20.15-7.89Z"/></g><path class="cls-9_police-29" d="m171.51,66.64s-3.5,12.89,4.89,14.98c8.39,2.09,7.46-20.54,12.45-21.16,4.99-.62,20.52,2.82,20.87-13,.35-15.81-16.26-14.2-24-7.71-7.73,6.49-19.44,2.8-14.21,26.88Z"/><path class="cls-12_police-29 targetColor" d="m159,99.96s-3.36-10.35,27.53-4.91c5.74,1.01,11.2,2.5,16.52,4.87,5.92,2.64,5.98,6.72-1.34,7.43-7.97.78-17.05,1.55-24.98.08-5.98-1.11-12.35-4.54-17.73-7.47Z" style="fill: rgb(108, 99, 255);"/><g class="cls-5_police-29"><path class="cls-10_police-29" d="m159,99.96s-3.36-10.35,27.53-4.91c5.74,1.01,11.2,2.5,16.52,4.87,5.92,2.64,5.98,6.72-1.34,7.43-7.97.78-17.05,1.55-24.98.08-5.98-1.11-12.35-4.54-17.73-7.47Z"/></g><path class="cls-12_police-29 targetColor" d="m178.24,105.83s93.67,43.53,141.12,78.85l-9.99,13.37s-107.03-25.87-151.32-30.33c-44.3-4.45-46.33-89.34,20.2-61.9Z" style="fill: rgb(108, 99, 255);"/><g class="cls-3_police-29"><path class="cls-1_police-29" d="m178.24,105.83s93.67,43.53,141.12,78.85l-9.99,13.37s-107.03-25.87-151.32-30.33c-44.3-4.45-46.33-89.34,20.2-61.9Z"/></g><path class="cls-12_police-29 targetColor" d="m211.37,261.23l18.15,34.92c14.1,27.12,47.42,142.11,47.42,142.11l-16.64,6.12s-52.2-106.15-65.9-124.56h0c-15.1-20.3-34.68-36.84-57.23-48.33l-9.88-5.03,84.08-5.23Z" style="fill: rgb(108, 99, 255);"/><path class="cls-12_police-29 targetColor" d="m127.29,266.45s11.35,68.12,8.22,85.52l-59.12,52.17,10.53,14.76,77.03-39.52c12.58-11.05,16.45-101.59,16.45-101.59l-53.12-11.34Z" style="fill: rgb(108, 99, 255);"/><path class="cls-2_police-29" d="m319.36,184.69s12.4-.29,12.39,9.08-7.74,12.1-23.71,3.6l11.32-12.68Z"/><path class="cls-2_police-29" d="m186.01,68.82s-1.63-4.57-5.32-1.61c-3.69,2.95.89,8.12,3.71,7.2,2.82-.93,1.61-5.58,1.61-5.58Z"/><rect class="cls-9_police-29" x="124.58" y="257.65" width="90.42" height="11.98" transform="translate(-13.67 9.32) rotate(-3.02)"/><rect class="cls-11_police-29" x="180.7" y="254.88" width="21.44" height="14.91" transform="translate(-14.93 11.57) rotate(-3.33)"/><rect class="cls-9_police-29" x="131.37" y="255.76" width="21.76" height="28.38" rx="5.04" ry="5.04" transform="translate(-24.82 14.62) rotate(-5.41)"/><path class="cls-9_police-29" d="m159,99.96s-25.01,19.75-28.8,17.86-12.91-3.86-9.15-6.78,26.96-16.71,29.8-16.56,8.14,5.48,8.14,5.48Z"/></g></svg>