<svg id="_0480_finger_print" data-name="0480_finger_print" xmlns="http://www.w3.org/2000/svg" xmlns:xlink="http://www.w3.org/1999/xlink" viewBox="0 0 500 500" data-imageid="fingerprint-47" imageName="Fingerprint" class="illustrations_image" style="width: 180px;"><defs><style>.cls-1_fingerprint-47{fill:#17619e;}.cls-2_fingerprint-47{fill:url(#linear-gradient);}.cls-3_fingerprint-47{fill:url(#linear-gradient-2-fingerprint-47);}.cls-4_fingerprint-47{fill:url(#linear-gradient-3-fingerprint-47);}.cls-5_fingerprint-47{fill:#2c2cb5;}.cls-6_fingerprint-47{fill:#5f5cea;}.cls-7_fingerprint-47{fill:#68e1fd;}.cls-8_fingerprint-47{fill:#fff;}.cls-9_fingerprint-47{fill:#ff6753;}.cls-10_fingerprint-47{fill:#5dc600;}.cls-11_fingerprint-47,.cls-13_fingerprint-47{fill:#406819;}.cls-11_fingerprint-47{opacity:0.5;}.cls-12_fingerprint-47{fill:#653200;}</style><linearGradient id="linear-gradient-fingerprint-47" x1="125.93" y1="317.37" x2="272.33" y2="232.72" gradientUnits="userSpaceOnUse"><stop offset="0" stop-color="#17619e"/><stop offset="1" stop-color="#1a1a1a"/></linearGradient><linearGradient id="linear-gradient-2-fingerprint-47" x1="217.73" y1="384.87" x2="339.84" y2="314.26" xlink:href="#linear-gradient-fingerprint-47"/><linearGradient id="linear-gradient-3-fingerprint-47" x1="377.89" y1="314.48" x2="406.19" y2="290.81" xlink:href="#linear-gradient-fingerprint-47"/></defs><g id="background_fingerprint-47"><path class="cls-1_fingerprint-47" d="M242,414.75,19.28,283.09c-7.1-4-13.18-10.52-6.27-14.8L236.58,139.44c3.36-2.08,8.45-3.44,11.86-1.46L482.28,273.69c7.1,4.12,8.37,15.62,1.27,19.74L271.41,414.54A29.62,29.62,0,0,1,242,414.75Z"/><polygon class="cls-2_fingerprint-47" points="228.56 264.14 132.99 338.87 90.5 312.28 192.16 260 219.61 253.78 228.56 264.14"/><polygon class="cls-3_fingerprint-47" points="304.29 342.11 227 402.54 187.43 379.35 267.88 337.97 295.34 331.75 304.29 342.11"/><path class="cls-4_fingerprint-47" d="M384.59,325.45c11.19-7.28,39.13-25.12,50.37-32.33l-22.89-17.36L355.25,307C362.69,315.47,374.94,319.42,384.59,325.45Z"/></g><g id="finger_print_fingerprint-47" data-name="finger print"><path class="cls-5_fingerprint-47" d="M225.6,72.61,155,112.71a17.2,17.2,0,0,0-8.72,15V294a5.43,5.43,0,0,0,2.46,4.58h0l0,0a5.19,5.19,0,0,0,1,.52l9.88,3.06c0-.66-.9-.91,5.52-1.88l-4.94-1.6c-6.23.35.06-1.05.08-1.05.18-.61-5.84.21-5.47-.32a5.74,5.74,0,0,1,3-2.3,5.12,5.12,0,0,1,3.08.12l74.22-41.91a19.67,19.67,0,0,0,10-17.32l.47-160.16S236.09,68.16,225.6,72.61Z"/><path class="cls-6_fingerprint-47" d="M243.4,258.11l-76.61,43.25a9.21,9.21,0,0,1-13.74-8V131.72a14.41,14.41,0,0,1,7.29-12.53L236.7,75.84a9.21,9.21,0,0,1,13.76,7.92L252,243.25A16.87,16.87,0,0,1,243.4,258.11Z"/><path class="cls-7_fingerprint-47 targetColor" d="M243.08,252l-79.67,45a5.22,5.22,0,0,1-7.79-4.55V131.13a10.16,10.16,0,0,1,5.14-8.83l79.35-45a5.22,5.22,0,0,1,7.8,4.49L249.43,241A12.51,12.51,0,0,1,243.08,252Z" style="fill: rgb(108, 99, 255);"/><ellipse class="cls-8_fingerprint-47" cx="205.96" cy="235.24" rx="19.13" ry="14.72" transform="translate(-89.26 338.23) rotate(-68.03)"/><path class="cls-5_fingerprint-47" d="M197.58,240l6.31,6c1.12,1.06,2.47.7,3.08-.78l7.33-17.7c1-2.4-2.49-3.59-3.47-1.22L203.5,244l3.08-.79-6.31-6c-1.77-1.68-4.48,1.09-2.69,2.79Z"/><path class="cls-5_fingerprint-47" d="M209.72,164.05c-2.29,3.54-8.19,5.26-10.92,1.51-2.34-3.22-1.89-10.57-1.56-14.63.39-4.72,2.25-10.64,6.73-10.48,5,.17,5,9.27,4.86,13.92a18.2,18.2,0,0,1-.94,6.36c-1,2.26-4.12,4.49-6.14,2.8-1.11-.93-1.68-3.78-1.81-5.37-.08-1.09,0-2.26,0-3.35,0-1.87-.28-4.26.29-6.05.5-1.56,2.47-3.6,4.06-3.16,1.05.3,1,.71,1.29,2.05a33.15,33.15,0,0,1,.27,6.62,12,12,0,0,1-.22,2.75c0,1.48-.74,2.06-2.26,1.74l0-1.44c-.35-2.16.12-5,.17-7.21,0-.94-1.13-1-1.15-.05,0,1.92-1.76,13.41,2.31,11.22,1.42-.76,2-2.93,2.15-4.65a34.85,34.85,0,0,0-.31-10.55c-.77-3.24-4.68-2.19-6.27-.23-1.24,1.54-1.47,3.76-1.53,5.84-.09,3.07-.48,7.25.26,10.21,1,4.06,5.77,4.37,8.23,2.15,3.47-3.11,3-10.79,2.58-15.31-.43-4.77-1.71-10.19-6.32-9.86-4.13.3-6.51,5.31-7.19,9.93a48.27,48.27,0,0,0,0,11.89c.28,2.77.79,5.45,2.78,7,3.63,2.81,9,1.23,11.61-2.86C211.16,164.09,210.19,163.32,209.72,164.05Z"/><path class="cls-5_fingerprint-47" d="M212.52,147.6c-.22-3.24-.26-8.38-2.42-10.7-1.89-2-5.3-1.7-7.6-1.42a10.08,10.08,0,0,0-6.79,3.41c-4.39,5.28-3.4,16-2.84,22.67.53,6.38,3.24,12.29,9.07,10.75.73-.19.48-1.61-.25-1.42-7.12,1.88-7.79-8.28-7.95-14.59-.14-5.67-.54-14,3.9-17.49a10.57,10.57,0,0,1,6.5-2c3.31-.07,5.84.91,6.62,5.27a69.74,69.74,0,0,1,.27,19.47c-.1.93,1.05,1,1.16.05A80,80,0,0,0,212.52,147.6Z"/><path class="cls-5_fingerprint-47" d="M219.58,152.4c0-9-2.69-18.68-8.63-24-6.15-5.55-14.71-3.12-19.84,3.74-6.65,8.92-6,24.18-5.38,35.3.29,5,1,10.25,3.83,14s7.28,4.32,11.3,4.5c.74,0,.8-1.43.06-1.46-3.23-.14-6.71-.35-9.39-2.8-2.93-2.68-4-7.38-4.46-11.72-.88-8.69-1-18.44.87-27,1.92-8.94,7.89-16.49,15.63-16.28,6.77.18,11.6,7.8,13.56,15.29a42.43,42.43,0,0,1-.69,23.19c-1.37,4.24-3.43,8.49-6.76,10.65-3.16,2-7,1.92-10.33,1.17a10.39,10.39,0,0,1-4.44-1.77c-1.86-1.51-2.49-4.28-3.07-6.83a65.88,65.88,0,0,1-1.62-13.85c-.07-8.45,1.19-17.71,8-21.64a10.71,10.71,0,0,1,11-.27c4.18,2.52,5,8,5.25,13.37.48,9.16.23,24.83-9.61,25.26-.74,0-.81,1.49-.06,1.46,8.65-.38,10.53-10.95,10.87-19.95.34-8.72,0-19.73-7.91-22.4-6.51-2.21-14.11,1.94-16.9,9.9-3.25,9.3-2.22,22.59.68,31.67,2.5,7.79,12.36,8.53,17.87,5.63C216.67,173.68,219.55,161.41,219.58,152.4Z"/><path class="cls-5_fingerprint-47" d="M220.87,179.51c-6-1.55-11.67,1-17.28,3.87-.69.36-.15,1.64.53,1.29,5.29-2.69,10.67-5.24,16.39-3.77C221.23,181.08,221.6,179.69,220.87,179.51Z"/><path class="cls-5_fingerprint-47" d="M199.68,188.12a7.64,7.64,0,0,0-2.27,2.13,12.7,12.7,0,0,0-.18-1.51c-.16-.92-1.29-.58-1.13.34a12,12,0,0,1,.13,3.44c-.06.7.8,1.06,1.06.41a7.08,7.08,0,0,1,2.92-3.53C200.89,189,200.36,187.73,199.68,188.12Z"/><path class="cls-5_fingerprint-47" d="M219.41,185.91c.74,0,.8-1.5.06-1.46-8.94.53-17.19,6.06-22.6,15.09.4.12.83.21,1.25.3C203.29,191.53,211.05,186.4,219.41,185.91Z"/><path class="cls-5_fingerprint-47" d="M201.16,200.21a13.1,13.1,0,0,0,1.66,0,45,45,0,0,1,7.21-6,23,23,0,0,1,7.77-3.94c.34-.54.65-1.09.95-1.66a22.92,22.92,0,0,0-9.25,4.32C206.71,194.88,203.5,197.2,201.16,200.21Z"/><path class="cls-5_fingerprint-47" d="M191.88,187.07c-2.27-2.5-6-4.14-9.1-3.49.13.48.29.95.45,1.41,2.5-.37,5.21.87,7.22,2.57,2.74,2.32,3,6.43,2.5,10.24.35.21.72.39,1.08.57C194.63,194.34,194.48,189.92,191.88,187.07Z"/><path class="cls-5_fingerprint-47" d="M185,189.05c.26.49.53,1,.81,1.45,2.36.21,4.25,2.4,4.58,5.41.4.34.8.67,1.21,1C191.61,192.23,188.55,188.72,185,189.05Z"/><path class="cls-5_fingerprint-47" d="M215.21,176.75a15.44,15.44,0,0,1,7-1.71l.06-1.48a16.85,16.85,0,0,0-7.62,1.9C214,175.82,214.53,177.1,215.21,176.75Z"/><path class="cls-5_fingerprint-47" d="M218.56,170.14c-.68.38-.15,1.66.53,1.29a18.29,18.29,0,0,1,3.36-1.46l.06-1.49A20.73,20.73,0,0,0,218.56,170.14Z"/><path class="cls-5_fingerprint-47" d="M221.75,142.54c-2.25-10.91-6.1-21.43-15.92-23.33A14.8,14.8,0,0,0,194.31,122c-3.95,2.88-6.46,7.58-8.84,12.34-.4.8.56,1.57,1,.77,2.19-4.37,4.47-8.77,8-11.54a13.87,13.87,0,0,1,11.87-2.79c8.9,2.24,12.23,12.07,14.3,22.08C220.81,143.78,221.94,143.45,221.75,142.54Z"/><path class="cls-5_fingerprint-47" d="M185.15,179.13c-2.44-12.94-1.54-26.26-.54-39.45.07-.93-1.09-1-1.16,0-1,13.31-1.89,26.76.57,39.84C184.19,180.38,185.32,180.05,185.15,179.13Z"/><path class="cls-5_fingerprint-47" d="M222.4,148c-.06-.93-1.19-.58-1.13.34a82.26,82.26,0,0,1-.61,17.11c-.13.92,1,1,1.15,0A84,84,0,0,0,222.4,148Z"/><path class="cls-8_fingerprint-47" d="M234.32,168v11.56c0,4.7,7.31,4.71,7.31,0V168C241.63,163.29,234.32,163.28,234.32,168Z"/></g><g id="character_fingerprint-47"><path class="cls-9_fingerprint-47" d="M260.9,185.38l-5.58-3.89a1.08,1.08,0,0,0-.54-.86q-8-5.16-15.93-10.36a1.28,1.28,0,0,0-1.93.75c-.52.95.2,1.91,1.11,2.61s2,1.55,3.05,2.32a1.39,1.39,0,0,0-.31.36c-.75,1.3-2,3.07-2,4.62,0,1.38,1.3,2.28,2.32,3.08a1.79,1.79,0,0,0,0,.23c-.13,1.91.72,2.4,2.26,3.3a1.24,1.24,0,0,0,1,.14,20.61,20.61,0,0,0,3.37,1.65l4.66,2.17c1.18.55,2-.87,1.48-1.8.92.05,1.27-1,1-1.75a1,1,0,0,0,.25-.41s0,0,0-.07l1.63,1.19c1.3,1,2.76-1.09,1.45-2l-1.16-.84,2.38,1.65A1.25,1.25,0,0,0,260.9,185.38Z"/><path class="cls-6_fingerprint-47" d="M302.38,343.44l1.91-1.33-.8-22h-9.68s.13,9.41-2,11.63-7.92.88-8.47,1.09-4.4-.77-6,1.05,6,6.63,10.05,7.43a26,26,0,0,0,8.31,0s.67-5.67,2.08-5.16,1.71,6.47,1.71,6.47Z"/><path class="cls-7_fingerprint-47 targetColor" d="M305.67,226.52a157.25,157.25,0,0,1,3.18,22.82c.46,8.72-.23,78.07-.23,78.07s-5.52,6.93-19.65,3.35c-2-.52-5-67.54-5-67.54l3.73-30.94" style="fill: rgb(108, 99, 255);"/><path class="cls-10_fingerprint-47" d="M298,191.74c-.77.08-26.54.24-44.49-14.76,0,0-8,8.46-4.48,14.6,0,0,25.49,22.92,44.14,17.41"/><path class="cls-11_fingerprint-47" d="M298,191.74c-.77.08-26.54.24-44.49-14.76,0,0-8,8.46-4.48,14.6,0,0,25.49,22.92,44.14,17.41"/><path class="cls-6_fingerprint-47" d="M276.46,361.35l1.91-1.33-.81-22h-9.68s.14,9.41-2,11.63-7.92.88-8.47,1.09-4.4-.77-6,1,6,6.64,10,7.44a26,26,0,0,0,8.31,0s.67-5.67,2.08-5.16,1.71,6.47,1.71,6.47Z"/><path class="cls-7_fingerprint-47 targetColor" d="M275.46,230.76S267.67,264,265,293.6c-.63,7.1-6.5,49.54-6.5,49.54s12.21,4,22.83.17c0,0,10.91-54.27,11.42-55.34s7.93-36.23,8.06-61.29" style="fill: rgb(108, 99, 255);"/><path class="cls-10_fingerprint-47" d="M301.29,187.94l-5.15-1.75c-1.3.13-12.76,4.31-17.75,12.17a48.7,48.7,0,0,0-1.43,7.4c-.56,3.33-1,6.67-1.33,10a73.46,73.46,0,0,0-.24,11c.1,1.57.16,2.36.38,3.92a7,7,0,0,0,2,1.31c15.43,6,27.24-2.33,27.77-3.58s1.95-19.25,2.73-30A10.33,10.33,0,0,0,301.29,187.94Z"/><path class="cls-9_fingerprint-47" d="M288.19,168.82s-4.19,17.54,2.25,19.69,14.38-4.92,15.08-8.53S297.55,163.28,288.19,168.82Z"/><path class="cls-12_fingerprint-47" d="M319.4,162.57a8.08,8.08,0,0,0-9.76-3.93c-3.47,1.26-5.48,4.35-6.39,7.74-3.25-2.66-8-3.89-13.92-1.86,0,0-5.77,2.71-4.58,6.4s5.64,3.57,9.39,4.14.85,4,1.15,7.65,2,4.23,3.55,4.49,8.55-1.48,9.26-9.83a12.82,12.82,0,0,0,0-1.52,20.19,20.19,0,0,0,2.91,0,10.83,10.83,0,0,0,6.15-1.93A9.4,9.4,0,0,0,319.4,162.57Z"/><path class="cls-9_fingerprint-47" d="M282.73,188.05a3.39,3.39,0,0,0,.5-2.38,1.27,1.27,0,0,0-2.28-.44c-.17.26-.35.51-.52.76q-.18-1.43-.42-2.85a1.26,1.26,0,0,0-2.48.17c0,.3-.06.6-.08.91a5.25,5.25,0,0,0-.17,1c-1.35.22-2.94.77-3.12,2.32a.41.41,0,0,0,0,.11c-1,.09-2,.48-2,1.71a4.27,4.27,0,0,0,.07.71c-1,.34-1.79.91-1.59,2.28A20.4,20.4,0,0,0,272,197a1.18,1.18,0,0,0,1,.67c.18.66.37,1.31.58,2a1.31,1.31,0,0,0,1.12.91,1.32,1.32,0,0,0,2-.67,1.53,1.53,0,0,0,.37-.08,1.25,1.25,0,0,0,1,.14,1.29,1.29,0,0,0,1.85-.62,1.27,1.27,0,0,0,.38-1.06c0-.28-.06-.56-.08-.85a0,0,0,0,0,0,0C281.13,194.26,282,191.16,282.73,188.05Z"/><path class="cls-10_fingerprint-47" d="M280.83,194.54c-.4.12-6.15-4.81-10.31-2.9,0,0-15.17,27.71.1,34.37,7.59,3.32,13-7.86,13-7.86l-4.56-8.3Z"/><path class="cls-13_fingerprint-47" d="M279.54,195.69a54.27,54.27,0,0,0-6.52,19c-.12.78,1.09,1.08,1.2.29a53.42,53.42,0,0,1,6.4-18.72A.62.62,0,0,0,279.54,195.69Z"/><path class="cls-13_fingerprint-47" d="M283.34,219.18c-1.18,2.46-2.66,5-5.09,6.41a8.15,8.15,0,0,1-9-1.08c-5.43-4.36-4.91-12.23-4.06-18.38.11-.78-1.1-1.08-1.2-.29-1,6.91-1.34,15.84,5.3,20.22a9.32,9.32,0,0,0,8.83,1c3.05-1.36,4.92-4.36,6.31-7.26C284.77,219.05,283.68,218.46,283.34,219.18Z"/><path class="cls-12_fingerprint-47" d="M297.94,251c-.25,15.77-4.38,31-7.8,46.31s-6.26,30.51-8.61,45.91l1.32-.42q3.58-23.32,8.76-46.37c3.39-15,7.32-30,7.57-45.48C299.19,250.19,298,250.23,297.94,251Z"/></g><g id="plant_fingerprint-47"><path class="cls-12_fingerprint-47" d="M441.5,237.38a3.8,3.8,0,0,0-.66-1.41,8.27,8.27,0,0,0-2.07-1.79c-10.49-7.11-25-9.07-36.11-2.12-2.53,1.59-6.29,5.18-4.8,8.56.87,2,3.5,3.12,5.33,3.92,5.95,2.62,12.59,3.87,19,5,2.35.4,4.72.79,7.1,1a9.8,9.8,0,0,0,8.64-3.71C439.6,244.71,442.25,240.46,441.5,237.38Z"/><path class="cls-7_fingerprint-47 targetColor" d="M397.58,239.08s9.57,8.66,26.1,7.4,17.82-9.1,17.82-9.1-4.28,54.8-6.54,55.74-10.71,5-14.78,5.33-17-4.86-17.28-6.28S397.58,239.08,397.58,239.08Z" style="fill: rgb(108, 99, 255);"/><path class="cls-10_fingerprint-47" d="M400.6,158c-.51-1-2.07-.13-1.56.9,11.31,22.81,13.52,48.49,15.56,73.43.09,1.14,1.9,1.15,1.8,0C414.34,207,412.06,181.08,400.6,158Z"/><path class="cls-10_fingerprint-47" d="M399.15,158.19s3.16,11.83-.1,17.75-6,7.1-2.06,14.49,14.32,8.35,15,14S407,168.24,399.15,158.19Z"/><path class="cls-10_fingerprint-47" d="M435.34,179.55A149,149,0,0,0,421,237.78c-.05,1.4,2.15,1.4,2.2,0a146.31,146.31,0,0,1,14.06-57.13C437.84,179.39,435.94,178.29,435.34,179.55Z"/><path class="cls-10_fingerprint-47" d="M436.88,185.33c0-1.19-.26-3.52-.14-5.61-.41.27-.83.53-1.26.79-4.31,10.44-10.72,35-12.64,42.51,2.61-5.63,13.32-6.4,16.46-14.49a14.77,14.77,0,0,0,.18-10.67C438.05,193.61,436.94,189.8,436.88,185.33Z"/></g></svg>