<svg transform="scale(1)" version="1.1" id="Layer_1" xmlns="http://www.w3.org/2000/svg" xmlns:xlink="http://www.w3.org/1999/xlink" x="0px" y="0px" viewBox="0 0 500 500" xml:space="preserve" class="show_show__wrapper__graphic__5Waiy "><title>React</title><style type="text/css">
	.st0{fill:#f67189;}
	.st1{opacity:0.48;fill:url(#SVGID_1_);enable-background:new    ;}
	.st2{opacity:0.48;fill:url(#SVGID_00000011003537032747244450000010079945078088662173_);enable-background:new    ;}
	.st3{opacity:0.48;fill:url(#SVGID_00000067942607732221348010000005782384670266011063_);enable-background:new    ;}
	.st4{fill:#FFE8BC;}
	.st5{fill:#68E1FD;}
	.st6{opacity:0.42;fill:#1371A5;enable-background:new    ;}
	.st7{fill:#00a8df;}
	.st8{fill:#E8601C;}
	.st9{fill:#FDBA45;}
	.st10{opacity:0.5;fill:#303030;enable-background:new    ;}
	.st11{fill:#FAA590;}
	.st12{fill:#303030;}
	.st13{fill:#D68B13;}
	.st14{fill:#1371A5;}
	.st15{opacity:0.3;fill:#FFE8BC;enable-background:new    ;}
</style><path class="st0" id="Base" d="M27.2,292.5L263,428.6c7.2,4.2,16.1,4.1,23.2-0.1l187.5-111c2.8-1.7,3.7-5.4,2-8.2
	c-0.5-0.8-1.2-1.5-2.1-2c-41.6-24-217.2-125.2-245.8-141.4c-2.4-1.4-5.4-1.3-7.8,0.1L27.2,279.1c-3.7,2.2-5,6.9-2.8,10.6
	C25.1,290.9,26,291.8,27.2,292.5z"></path><g id="Shadow_1"><linearGradient id="SVGID_1_" gradientUnits="userSpaceOnUse" x1="177.4585" y1="114.3412" x2="196.8485" y2="138.2512" gradientTransform="matrix(1 0 0 -1 0 502)"><stop offset="1.000000e-02" style="stop-color: rgb(218, 242, 233); stop-opacity: 0;"></stop><stop offset="1" style="stop-color: rgb(48, 48, 48);"></stop></linearGradient><path class="st1" d="M205.3,395.3l-72.1-39.9l69.1-39.9l76.3,34.2l-52.9,31.2C217.6,385.9,213.2,390.2,205.3,395.3z"></path><linearGradient id="SVGID_00000033362437597069301830000017084249882546905002_" gradientUnits="userSpaceOnUse" x1="334.7509" y1="147.4894" x2="367.3409" y2="196.3694" gradientTransform="matrix(1 0 0 -1 0 502)"><stop offset="1.000000e-02" style="stop-color: rgb(218, 242, 233); stop-opacity: 0;"></stop><stop offset="1" style="stop-color: rgb(48, 48, 48);"></stop></linearGradient><polygon points="
		426.7,322.8 350.4,288.6 281.3,328.5 354,368 	" style="opacity: 0.48; fill: url(&quot;#SVGID_00000033362437597069301830000017084249882546905002_&quot;);"></polygon><linearGradient id="SVGID_00000085231810683035878410000016670915806018636966_" gradientUnits="userSpaceOnUse" x1="68.9094" y1="193.3271" x2="97.8594" y2="236.7471" gradientTransform="matrix(1 0 0 -1 0 502)"><stop offset="1.000000e-02" style="stop-color: rgb(218, 242, 233); stop-opacity: 0;"></stop><stop offset="1" style="stop-color: rgb(48, 48, 48);"></stop></linearGradient><path d="
		M70.8,316.4l-38.4-23.5l64.9-34l42.4,14.3l-49.3,30.5C82.3,308.7,78.7,311.2,70.8,316.4z" style="opacity: 0.48; fill: url(&quot;#SVGID_00000085231810683035878410000016670915806018636966_&quot;);"></path></g><g id="Book_stack_2"><polyline class="st4" points="381.3,214.2 390.1,218.9 365.9,241.7 344.6,248.4 337.5,238.8 	"></polyline><polyline class="st5" points="347.9,243.6 339.7,238.9 381.3,214.2 380.3,213.6 337.5,238.8 337.5,303 346.9,308.3 350.4,304.6 	
		"></polyline><polyline class="st6" points="347.9,243.6 339.7,238.9 381.3,214.2 380.3,213.6 337.5,238.8 337.5,303 346.9,308.3 350.4,304.6 	
		"></polyline><polygon class="st5" points="390.1,218.9 346.9,244.2 346.9,308.3 390.8,282 	"></polygon><polygon class="st7" points="348.5,239.9 351.1,241.6 351.1,255.3 352.8,253.1 354,254.5 354,240 351.5,238.2 	"></polygon><polyline class="st4" points="393.6,221.6 402.5,226.3 378.3,249.1 357,255.8 349.9,246.2 	"></polyline><polyline class="st5" points="360.2,250.9 352,246.3 393.6,221.6 392.6,221 349.9,246.2 349.9,310.3 359.2,315.6 362.8,311.9 	"></polyline><polyline class="st6" points="360.2,250.9 352,246.3 393.6,221.6 392.6,221 349.9,246.2 349.9,310.3 359.2,315.6 362.8,311.9 	"></polyline><polygon class="st5" points="402.5,226.3 359.2,251.5 359.2,315.6 403.2,289.4 	"></polygon><polygon class="st7" points="360.9,247.3 363.5,249 363.5,262.7 365.2,260.5 366.3,261.9 366.3,247.4 363.9,245.6 	"></polygon><polyline class="st4" points="407.3,228.3 416.2,233.1 392,255.8 370.7,262.5 363.6,252.9 	"></polyline><polyline class="st5" points="374,257.7 365.7,253 407.3,228.3 406.4,227.8 363.6,252.9 363.6,317.1 372.9,322.4 376.5,318.7 	"></polyline><polyline class="st6" points="374,257.7 365.7,253 407.3,228.3 406.4,227.8 363.6,252.9 363.6,317.1 372.9,322.4 376.5,318.7 	"></polyline><polygon class="st5" points="416.2,233.1 372.9,258.3 372.9,322.4 416.9,296.1 	"></polygon><polygon class="st7" points="374.6,254.1 377.2,255.8 377.2,269.4 378.9,267.3 380.1,268.6 380.1,254.1 377.6,252.4 	"></polygon></g><g id="Book_stack_1"><path class="st8" d="M366,319.1c-0.2,0-1.6-0.6-0.4-1.5c0.8-0.6,1.6-1.2,2.5-1.7"></path><path class="st4" d="M366,311.5c0,0,1.2,4.4,0,6.8l16.2,9.5l16,9.3v-6.9"></path><path class="st8" d="M365.5,310.9c0,0.3,0.1,0.6,0.1,0.9l32.7,18.5v6.9l-32.6-19c0,0.3,0,0.5,0,0.8l33.9,19.6v-9.4L365.5,310.9z"></path><path class="st9" d="M365.7,311l33.7,19.3l47.3-27.8l-33-18.9c-1-0.6-2.3-0.6-3.3,0l-44.7,26.5c-0.2,0.1-0.3,0.4-0.2,0.7
		C365.5,310.9,365.6,311,365.7,311z"></path><path class="st8" d="M399.5,338.5c0,0,47.3-27.8,47.1-28s0-8,0-8l-47.3,27.8L399.5,338.5z"></path><path class="st9" d="M365.7,310.1c-0.3,0.2-0.5,0.5-0.5,0.9c0,0.6,0.6,0.9,0.8,1"></path><path class="st8" d="M366.1,306.5c-0.1,0-1.6-0.6-0.4-1.5c0.8-0.6,1.6-1.2,2.5-1.7"></path><path class="st4" d="M366.1,299c0,0,1.2,4.4,0,6.8l16.2,9.5l16,9.3v-6.9"></path><path class="st8" d="M365.6,298.3c0,0.3,0.1,0.6,0.1,0.9l32.7,18.5v6.9l-32.6-19c0,0.3,0,0.5,0,0.8l33.9,19.6v-9.4L365.6,298.3z"></path><path class="st9" d="M365.8,298.4l33.7,19.3l47.3-27.8l-33-18.9c-1-0.6-2.3-0.6-3.3,0l-44.7,26.5c-0.2,0.1-0.3,0.4-0.2,0.7
		C365.6,298.3,365.7,298.3,365.8,298.4z"></path><path class="st8" d="M399.7,325.9c0,0,47.3-27.8,47.1-28s0-8.1,0-8.1l-47.3,27.8L399.7,325.9z"></path><path class="st9" d="M365.8,297.5c-0.3,0.2-0.5,0.5-0.5,0.9c-0.1,0.6,0.5,0.9,0.8,1"></path><path class="st8" d="M366.1,293.6c-0.1,0-1.6-0.6-0.4-1.5c0.8-0.6,1.6-1.2,2.5-1.7"></path><path class="st4" d="M366.1,286.1c0,0,1.2,4.4,0,6.8l16.2,9.5l16,9.3v-6.9"></path><path class="st8" d="M365.6,285.4c0,0.3,0.1,0.6,0.1,0.9l32.7,18.5v6.9l-32.6-19c0,0.3,0,0.5,0,0.8l33.9,19.6v-9.4L365.6,285.4z"></path><path class="st9" d="M365.8,285.5l33.7,19.3l47.3-27.8l-33-18.9c-1-0.6-2.3-0.6-3.3,0l-44.7,26.5c-0.2,0.1-0.3,0.4-0.2,0.7
		C365.6,285.4,365.7,285.5,365.8,285.5z"></path><path class="st8" d="M399.7,313.1c0,0,47.3-27.8,47.1-28s0-8,0-8l-47.3,27.8L399.7,313.1z"></path><path class="st9" d="M365.8,284.7c-0.3,0.2-0.5,0.5-0.5,0.9c-0.1,0.6,0.5,0.9,0.8,1"></path></g><g id="Main_Book"><path class="st7" d="M157.5,341.3c-0.3,0-3.2-1.2-0.8-3c1.6-1.3,3.3-2.4,5.1-3.5"></path><path class="st10" d="M157.5,341.3c-0.3,0-3.2-1.2-0.8-3c1.6-1.3,3.3-2.4,5.1-3.5"></path><path class="st4" d="M157.5,326c0,0,2.4,9,0,13.8l33,19.4l32.7,18.9v-14"></path><path class="st7" d="M156.4,324.6c0.1,0.6,0.1,1.2,0.2,1.9l66.5,37.6v14l-66.5-38.8c0,0.5,0,1.1,0,1.7l69.1,40v-19L156.4,324.6z"></path><path class="st7" d="M225.7,380.9c0,0,96.3-56.7,95.9-56.9s0-16.4,0-16.4l-96.3,56.5L225.7,380.9z"></path><path class="st7" d="M156.8,323.1c-0.6,0.4-0.9,1-1,1.7c-0.1,1.2,1.1,1.7,1.6,2"></path><path class="st10" d="M225.7,380.9c0,0,96.3-56.7,95.9-56.9s0-16.4,0-16.4l-96.3,56.5L225.7,380.9z"></path><path class="st10" d="M156.4,324.6c0.1,0.6,0.1,1.2,0.2,1.9l66.5,37.6v14l-66.5-38.8c0,0.5,0,1.1,0,1.7l69.1,40v-19L156.4,324.6z"></path><path class="st7" d="M156.8,324.8l68.6,39.3l96.3-56.5l-67.1-38.5c-2.1-1.2-4.6-1.2-6.7,0l-91.1,54c-0.5,0.3-0.6,0.9-0.3,1.4
		C156.5,324.6,156.6,324.8,156.8,324.8z"></path><ellipse class="st10" id="Shadow_2" cx="236.2" cy="316" rx="31.6" ry="10.1"></ellipse></g><g id="Character"><path class="st11" d="M190.3,118.1l-16.8,0.8c0,0-16.3-3.2-19-1.6c-2.4,1.4-13,4.8-12.2,6.3s10.1-1,10.1-1s-3.8,1.7-2.2,2.9
		s7.3-2.7,9.1-2.1s35,2.4,35,2.4"></path><path class="st11" d="M172.6,123.7c-4.4,0.8-9,0.4-13.2-1.1c-0.8-0.3-1.1,1-0.3,1.2c4.5,1.6,9.3,2,13.9,1.1
		C173.7,124.8,173.4,123.5,172.6,123.7z"></path><path class="st8" d="M255.1,90.1c0,0,13.3,5.3,13.6,14.9s2,11.2,9.6,13.4s15,3.8,15.4,9.4s-12.7,10.7-20,13.4s-29.9-20.4-28.5-29.4
		"></path><path class="st12" d="M293.9,177.8c0,0,6.5-6.3,11.5-6.2s13.7,1.3,14.3-1.6s-8.3-7.4-11.7-8.5s-14.1,5.2-14.8,4.1s6.6-6.4,6.6-6.4
		s-4.9-2-5-1.7s-8.6,9.9-10.1,14.3S293.9,177.8,293.9,177.8z"></path><path class="st12" d="M231.1,272.3c0,0-0.3,9.1-3.9,12.5s-10.7,8.7-9.2,11.2s11.1-0.5,14.4-2.1s6.4-13.7,7.8-13.4s-0.2,9.3-0.2,9.3
		s4.9-2,4.8-2.3s-0.8-13.1-2.8-17.5S231.1,272.3,231.1,272.3z"></path><path class="st9" d="M340.2,95l-36.4-26.2c-3.6,1.8-6.3,5.1-7.3,9.1l36.4,26.2C335.3,101,337.8,98,340.2,95z"></path><ellipse class="st9" transform="matrix(0.5845 -0.8114 0.8114 0.5845 65.2027 274.0703)" cx="300.2" cy="73.4" rx="5.8" ry="3.2"></ellipse><ellipse class="st13" transform="matrix(0.5845 -0.8114 0.8114 0.5845 59.0581 314.4263)" cx="336.6" cy="99.5" rx="5.8" ry="3.2"></ellipse><path class="st11" d="M317.4,85.5c0.6-2.3-2.3-2.9-3.9-3c-2.8,0-5,1.1-6,3.8c-1.6,4.3-0.8,8.9-3.4,13c-0.5,0.8,0.7,1.6,1.2,0.8
		c0.4-0.7,0.8-1.4,1.1-2.1c-0.3,0.9-0.5,1.8-0.8,2.6c-0.1,0.2,0,0.4,0.1,0.6l-0.2,0.8c-0.1,0.4,0.1,0.8,0.5,0.9c0.1,0,0.3,0,0.4,0
		l-0.5,0.8c-0.2,0.3-0.2,0.8,0.2,1c0.3,0.2,0.8,0.2,1-0.2c0,0,0-0.1,0.1-0.1c0.2,0.4,0.9,0.7,1.2,0.1c1.3-2.3,2.8-4.6,4.4-6.7
		c1.1-1.3,2.3-2.6,2.6-4.3c0.5-2.4-0.6-4.9-2.7-6.1C314.6,87.6,316.9,87.3,317.4,85.5z"></path><path class="st12" d="M212.1,112.7c-8.4,1.5-28,1.9-41.1,2c-2,9.3-2.8,18.9-2.6,28.4c13.2,1.7,34.3,2.9,50.7-3.6l21.8-28.3
		C231.1,110.6,221.5,111.1,212.1,112.7z"></path><path class="st12" d="M238.8,111c0.1,0.6-32.5,78.4-33.5,133.8c0,0,28.7-27.2,44.4-40.1"></path><path class="st5" d="M230,159.7c0.1-1.2-1-45.9,9.7-48s24.5,7.6,24.6,13s-9.5,37.8-17,38S230,159.7,230,159.7z"></path><path class="st5" d="M230,144.5c-2.9,3.4-21.2,54.3-21.2,66.8s21.1,61.1,23.7,62.1s8.1-1.7,9.1-4s-12.1-52.1-12.1-52.1
		s17.2-40.4,14.8-50.1S230,144.5,230,144.5z"></path><path class="st5" d="M239.6,159.4c-0.2,1,1,45.7,5.5,51.3s15.8,7.3,21.5,2.2s29.7-35.2,26.8-37.2c-2.7-1.9-6-2.6-9.2-2
		c-3.5,0.4-24.7,24.3-24.7,24.3s0.5-46.4-4.1-51.2"></path><path class="st12" d="M251.3,113.2c0,0-8.4,55.5,0.4,71.6c6,10.5,13.2,20.2,21.6,28.9c0,0,24.5-9.4,26.4-12.5s-27.9-29.8-29.6-37.9
		s1.2-36.2-3.1-40.2S251.3,113.2,251.3,113.2z"></path><path class="st12" d="M251.3,113.2c0,0,19.5,8.5,25.7,7.3s27-22.2,28.5-23.8c0,0,16.5,15.1,17.7,20.9c0,0-24.2,25.1-34.3,28.3
		s-27.9-0.4-27.9-0.4"></path><path class="st12" d="M219.5,182.5c6.5-24.3,13.7-48.6,25.7-70.8c-11.2-2.2-15.4,0.5-15.4,0.5c-16.2,11.5-48,108.9-48,108.9
		c0.4,8.9,18.3,20.6,22.6,23.2C208.2,223.5,214.1,203,219.5,182.5z"></path><path class="st11" d="M242.6,94.3c0,0-3.6,14.5,1,17.7s14.2-3.4,16-10.2S247.4,86.6,242.6,94.3z"></path><path class="st8" d="M251.8,98.3c0,0-0.6,4.9,0.9,6.7s-4.3,7.6,4.7,10.7s5.9-16,3.9-17.4"></path><ellipse class="st12" transform="matrix(0.1944 -0.9809 0.9809 0.1944 108.3014 324.7062)" cx="251.8" cy="96.4" rx="3.1" ry="9.7"></ellipse><polyline class="st12" points="242.3,94.5 244.3,85.7 263.2,88.8 261.3,98.3 	"></polyline><polygon class="st12" points="233.5,82.1 253.1,96.1 275,86.3 254.5,71.7 	"></polygon><path class="st9" d="M255.1,84.8l8.6,7.7l-1.8,8c0,0-1.5,0.9-2.1,4.5c1.4,0.7,2.9,0.8,4.4,0.4c0.4-1.8-0.3-3.7-1.8-4.9l1.8-8.2
		l-8.8-8C255.5,84.4,255.1,84.2,255.1,84.8z"></path></g><g id="Hourglass"><path class="st9" d="M78,196.1c0,0,4.3,38.7,26.5,41.8s31-32.5,30.2-41.8"></path><path class="st9" d="M134.8,270.1c0,0-4.3-38.7-26.5-41.8s-31,32.5-30.2,41.8"></path><ellipse class="st9" cx="106.4" cy="270.1" rx="28.4" ry="8"></ellipse><ellipse class="st14" cx="106.4" cy="198.6" rx="28.4" ry="8"></ellipse><polygon class="st14" points="78,198.6 78,196.1 79.7,196.8 	"></polygon><path class="st14" d="M134.8,196.1v2.6l-1.3,1v-2.3"></path><ellipse class="st14" cx="106.4" cy="196.1" rx="28.4" ry="8"></ellipse><path class="st13" d="M84.3,213.4c0,0,6.8,15.8,13.7,18.3s15.3,2.7,21.9-3.5c4.1-4.1,7.2-9.2,8.9-14.8c-4.6-2.7-10.3-2.1-14.4,1.3
		c-7.1,5.9-8.2,7.3-13.4,3.8S88.6,210.6,84.3,213.4z"></path><path class="st13" d="M83.7,268.1c0,0,13.4-24.4,22.7-22.9s22.5,23.9,22.5,23.9S106.4,278.1,83.7,268.1z"></path><ellipse class="st15" cx="106.4" cy="196.1" rx="28.4" ry="8"></ellipse></g><g id="Medal"><path class="st8" d="M402.2,151.9c0,0,12,34.8,11.5,35.2s-6.7-4.5-7.2-4.2s-4,5.5-4,5.5l-11.2-34.3"></path><path class="st8" d="M383.1,148.6l-6.6,32.5c0,0,7.8-6.4,7.6-5.8s1,7.7,1,7.7l9.4-32.9"></path><ellipse class="st13" transform="matrix(0.9938 -0.1109 0.1109 0.9938 -13.2007 44.5313)" cx="393.5" cy="140.9" rx="15.9" ry="20.4"></ellipse><ellipse class="st9" transform="matrix(0.9938 -0.1109 0.1109 0.9938 -13.2401 44.302)" cx="391.4" cy="141.1" rx="15.9" ry="20.4"></ellipse></g></svg>