<svg version="1.1" id="Layer_1" xmlns="http://www.w3.org/2000/svg" xmlns:xlink="http://www.w3.org/1999/xlink" x="0px" y="0px" viewBox="0 0 500 500" style="width: 180px;" xml:space="preserve" data-imageid="user-status-49" imageName="User Status" class="illustrations_image">
<style type="text/css">
	.st0_user-status-49{fill:#3E5A70;}
	.st1_user-status-49{fill:#68E1FD;}
	.st2_user-status-49{opacity:0.63;fill:url(#Notif_Character_3_00000047021842966379553080000017283457216313277089_);enable-background:new    ;}
	.st3_user-status-49{fill:#4B1B13;}
	.st4_user-status-49{fill:#FFAC73;}
	.st5_user-status-49{fill:#F78546;}
	.st6_user-status-49{fill:#F2F2F2;}
	.st7_user-status-49{fill:#FFFFFF;}
	.st8_user-status-49{opacity:0.63;fill:url(#Character_2_Shadow_00000078046135368415067960000001179887257887019453_);enable-background:new    ;}
	.st9_user-status-49{fill:#17283A;}
	.st10_user-status-49{fill:#FFA7BD;}
	
		.st11_user-status-49{opacity:0.63;fill:url(#Character_1_Shadow_00000026137751345222466620000001198590519476489368_);enable-background:new    ;}
</style>
<path id="Base_user-status-49" class="st0_user-status-49" d="M31.8,274.4l171.4-99.6c2.5-1.4,5.6-1.4,8.1,0l256.2,146.6c3.9,2.3,5.2,7.2,2.9,11.1&#10;&#9;c-0.7,1.2-1.7,2.2-2.9,2.9L303.6,430c-8.2,4.7-18.3,4.7-26.5,0L31.8,288.4c-3.9-2.2-5.2-7.2-3-11.1&#10;&#9;C29.5,276.1,30.6,275.1,31.8,274.4z"/>
<g id="Blue_Line_user-status-49">
	
		<ellipse transform="matrix(0.9573 -0.2892 0.2892 0.9573 -38.7696 63.1224)" class="st1_user-status-49 targetColor" cx="194.2" cy="162.8" rx="52.7" ry="73.3" style="fill: rgb(108, 99, 255);"/>
	<polyline class="st1_user-status-49 targetColor" points="133.8,231.1 33,289 110.1,333.5 249.7,255.6 &#9;" style="fill: rgb(108, 99, 255);"/>
</g>
<linearGradient id="Notif_Character_3_00000002342426493201545580000015646046083931138705_-user-status-49" gradientUnits="userSpaceOnUse" x1="2104.7668" y1="224.1836" x2="2148.4268" y2="261.8836" gradientTransform="matrix(-1 0 0 -1 2341.1699 502)">
	<stop offset="0" style="stop-color:#FFFFFF;stop-opacity:0"/>
	<stop offset="0.99" style="stop-color:#808080"/>
</linearGradient>
<polyline id="Notif_Character_3_user-status-49" style="opacity:0.63;fill:url(#Notif_Character_3_00000002342426493201545580000015646046083931138705_);enable-background:new    ;" points="&#10;&#9;148.1,243.1 221.5,286.1 264.1,260.2 204,225.2 "/>
<g id="Character_3_user-status-49">
	<path class="st1_user-status-49 targetColor" d="M227.6,248.1c0,0-1.4-22.4-1.9-27.9c-0.5-5-2.1-27-15.9-34c-17.4-8.8-37.5-20.2-56-14.9&#10;&#9;&#9;c-15,4.3-20.1,56.3-20,59.8C134.1,237.3,180.7,270.2,227.6,248.1z" style="fill: rgb(108, 99, 255);"/>
	<path class="st3_user-status-49" d="M161.9,141.6c0,0-3.7-3-5.8-10s1.4-17.1,9-18s9.9,3,9.9,3s28.2-5,32.5,17.1l0,0c0.8,6.2,4.2,28.6-14.1,33.6&#10;&#9;&#9;s-11.7-21.1-11.7-21.1"/>
	<path class="st4_user-status-49" d="M161.1,136.8c0,0,0.1,14.6,0,20c-0.1,5.7,2.3,21.1,11.7,20.6s19-11.4,19-13.9c0,0,9.5-5.9,4.1-10.4&#10;&#9;&#9;s-5.8,3.1-5.8,3.1s-2.9-4.2-3.1-15.5C187.1,140.6,173.7,142.7,161.1,136.8z"/>
	<path class="st4_user-status-49" d="M191.4,178.5c-4.8,4.4-12.6,5.2-19.7,4.2c-1.1-0.1-2-0.9-2.2-2c-0.1-2.2-0.3-4.4-0.4-6.6l24.7-12.1l-1.9,15.8&#10;&#9;&#9;C191.9,177.8,191.7,178.1,191.4,178.5z"/>
	<path class="st5_user-status-49" d="M174.4,183c-1-0.1-1.9-0.2-2.9-0.3c-1.1-0.1-2-0.9-2.1-2c-0.1-1.1-0.1-2.3-0.2-3.4c5.2,0,14.6-1.2,19.5-10.9&#10;&#9;&#9;C187.5,174.1,182,180.6,174.4,183z"/>
	<path class="st6_user-status-49" d="M193.8,173.5c-2,1.3-4.1,2.6-6.1,3.8c-2.9,1.8-6,3.3-9.2,4.5c-2.7,0.9-7.4,2.2-8.9-1.1&#10;&#9;&#9;c-0.1-0.6-0.2-1.2-0.1-1.9c0-0.8,0-1.5-0.1-2.2h-0.1c-1.2-0.5-2.3-1.3-3.1-2.3c-0.1-0.1-0.1-0.2-0.1-0.3l0,0c0,0-6.5,18.6-5.5,19.5&#10;&#9;&#9;s8.8-3.7,8.8-3.7s3.4,6.9,4.7,7.5s18.4-14.4,20.7-18.6L193.8,173.5z"/>
	<path class="st5_user-status-49" d="M162.7,192.6c-0.4,0.1-1.3,4.1,0,7.9c0,0,3.2,1.4,3.8,1.2s5.8-6.1,5.6-6.4s-3.2-5.8-3.2-5.8L162.7,192.6z"/>
	<path class="st5_user-status-49" d="M162.7,200.4c0,0-11.4,44.5-10.7,44.9s10.7,5.5,14.2,5.7l0.2-49.4"/>
	<path class="st3_user-status-49" d="M164.2,159.2c-2.9,0-5.3-3.1-5.3-7s2.4-7,5.3-7s5.3,3.1,5.3,7S167.1,159.2,164.2,159.2z M164.2,145.9&#10;&#9;&#9;c-2.5,0-4.5,2.8-4.5,6.3s2,6.3,4.5,6.3s4.5-2.8,4.5-6.3S166.7,145.9,164.2,145.9z"/>
	<path class="st3_user-status-49" d="M178,162.4c-3.2,0-5.8-3.1-5.8-7s2.6-7,5.8-7s5.8,3.2,5.8,7S181.2,162.4,178,162.4z M178,149.1&#10;&#9;&#9;c-2.8,0-5.1,2.8-5.1,6.3s2.3,6.3,5.1,6.3s5.1-2.8,5.1-6.3S180.8,149.1,178,149.1z"/>
	
		<rect x="170.4" y="152.3" transform="matrix(0.1402 -0.9901 0.9901 0.1402 -5.667 301.5959)" class="st3_user-status-49" width="0.8" height="3.5"/>
	<rect x="183.3" y="154" transform="matrix(0.9702 -0.2423 0.2423 0.9702 -31.8246 49.965)" class="st3_user-status-49" width="7.9" height="0.8"/>
</g>
<g id="Notif_Character_3-2_user-status-49">
	<ellipse transform="matrix(0.9849 -0.173 0.173 0.9849 -15.6014 41.3456)" class="st5_user-status-49" cx="229.4" cy="110.2" rx="21" ry="25.4"/>
	<ellipse transform="matrix(0.9905 -0.1376 0.1376 0.9905 -13.015 32.4911)" class="st7_user-status-49" cx="228.5" cy="110.4" rx="8.4" ry="9.9"/>
</g>
<g id="Orange_Line_user-status-49">
	<polyline class="st5_user-status-49" points="189.2,287.4 110.1,333.5 206.1,388.9 315.9,315.4 &#9;"/>
	<ellipse transform="matrix(0.9567 -0.291 0.291 0.9567 -52.9694 81.0438)" class="st5_user-status-49" cx="246" cy="218.6" rx="52.6" ry="73.1"/>
</g>
<linearGradient id="Character_2_Shadow_00000061434532353995041780000005338793493409886857_-user-status-49" gradientUnits="userSpaceOnUse" x1="2052.9719" y1="169.0878" x2="2096.6318" y2="206.7878" gradientTransform="matrix(-1 0 0 -1 2341.1699 502)">
	<stop offset="0" style="stop-color:#FFFFFF;stop-opacity:0"/>
	<stop offset="0.99" style="stop-color:#808080"/>
</linearGradient>
<polyline id="Character_2_Shadow_user-status-49" style="opacity:0.63;fill:url(#Character_2_Shadow_00000061434532353995041780000005338793493409886857_);enable-background:new    ;" points="&#10;&#9;199.9,298.1 273.3,341.2 315.9,315.4 255.8,280.3 "/>
<g id="Character_2_user-status-49">
	<path class="st0_user-status-49" d="M280.3,303.9c0,0-1.4-21.8-1.9-27.1c-0.5-4.9-2.1-26.2-15.5-33c-16.9-8.5-36.4-19.6-54.4-14.4&#10;&#9;&#9;c-14.6,4.2-19.6,54.7-19.4,58C189.5,293.5,234.8,325.4,280.3,303.9z"/>
	<path class="st1_user-status-49 targetColor" d="M251.3,237.9c0,0,3.1,18.9-14.7,20.4c-12.5,1-9.7-9.1-9.7-9.1s-6.1,5-12.6,1.1s4.1-18.9,9-19.9&#10;&#9;&#9;S239.7,229.8,251.3,237.9z" style="fill: rgb(108, 99, 255);"/>
	<circle class="st3_user-status-49" cx="255.2" cy="190.3" r="14.1"/>
	<path class="st3_user-status-49" d="M215.1,202.1c-2.2-2.8-3.5-6.3-3.7-9.9c-0.2-1.7-0.1-3.5,0.2-5.2c0.5-2,1.8-3,3.4-4.2c1.2-0.8,2.3-1.7,3.3-2.8&#10;&#9;&#9;c0,0,36.8-7.2,41.1,14.3l0,0c0.8,6,0.3,24.1-16.1,31.7c-16.7,7.7-9-19.6-9-19.6"/>
	<path class="st4_user-status-49" d="M224,232.6l22-10.8l-1.9,15.3c0,0-0.1,0.3-0.4,0.8c-4,3.7-10.1,4.8-16.2,4.4c-1.3-0.1-2.4-1.1-2.6-2.5&#10;&#9;&#9;C224.7,237.4,224.4,235,224,232.6z"/>
	<path class="st4_user-status-49" d="M214.4,198c0,0-1.3-7.2,6.8-8.4c2.2-0.3,4.2-0.4,5.6,1.7c1.6,2.5,1.8,5.4,4.2,7.5c2.4,2.1,5.7,2.6,8.6,1.4&#10;&#9;&#9;c0.1,2.4-0.3,4.2-3.2,5S216.6,202.7,214.4,198z"/>
	<path class="st3_user-status-49" d="M243.5,191.2c-8.8-3.1-17.1-5-26.4-3.7c-0.8,0.1-1.5,0.7-1.5,1.6c-0.7-3.7-1.6-13.1,6-16&#10;&#9;&#9;c9.5-3.6,25.4,0.9,29.9,9.5c2.2,4.2,3.2,9,3.1,13.7C251.3,193.8,247.3,192.6,243.5,191.2z"/>
	<path class="st5_user-status-49" d="M224.6,236.6l0.3,3.2c0,0,14.6-0.4,16.7-12.3L224.6,236.6z"/>
	<path class="st4_user-status-49" d="M214.3,197.3c0,0,0.1,14.1,0,19.4c-0.1,5.5,5.5,20,11.4,20c9.2,0,18.4-11.1,18.4-13.5c0,0,9.2-5.7,4-10.1&#10;&#9;&#9;s-5.6,3.1-5.6,3.1s-2.8-4.1-3-15.1C239.5,201.1,226.5,203.1,214.3,197.3z"/>
	<path class="st9_user-status-49" d="M201.2,298.4c-0.9-0.5-1.7-1.1-2.5-1.7c0.4-11,1.8-22,4.4-32.7c0.4-1.9,3.3-1.1,2.9,0.8&#10;&#9;&#9;c-2.6,11.1-4.1,22.4-4.4,33.8L201.2,298.4z"/>
	<path class="st9_user-status-49" d="M257.3,310.7c-0.4,0-0.9,0.1-1.3,0.1l-1.1-37.7c-0.1-1.9,2.9-1.9,3,0l1,37.5&#10;&#9;&#9;C258.4,310.6,257.9,310.6,257.3,310.7z"/>
	<path class="st3_user-status-49" d="M246.4,226.6c-3.3-3.2-5.6-7.3-6.4-11.8c-1.1-7,8.3-3.9,9.8-0.8S250.8,225,246.4,226.6z"/>
</g>
<g id="Notif_Character_2_user-status-49">
	<ellipse transform="matrix(0.9849 -0.173 0.173 0.9849 -27.3054 54.5934)" class="st1_user-status-49 targetColor" cx="299.6" cy="184" rx="21" ry="25.4" style="fill: rgb(108, 99, 255);"/>
	<path class="st6_user-status-49" d="M285.3,186.4l8.6,10.1c0.6,0.6,1.5,0.6,2.1,0l15.7-17.7l2.2-2.5c1.3-1.4-0.8-3.6-2.1-2.1l-15.7,17.7l-2.2,2.5&#10;&#9;&#9;h2.2l-8.6-10.1C286.2,182.8,284.1,185,285.3,186.4L285.3,186.4z"/>
</g>
<g id="Pink_Line_user-status-49">
	<path class="st10_user-status-49" d="M363.5,308.1V379l-84.4,51.6l-14-7.6l-59-34.1l71.1-48.8"/>
	
		<ellipse transform="matrix(0.9567 -0.291 0.291 0.9567 -72.5525 102.6835)" class="st10_user-status-49" cx="308.9" cy="295.2" rx="52.6" ry="73.1"/>
</g>
<linearGradient id="Character_1_Shadow_00000079478546058005939290000010054004416496072852_-user-status-49" gradientUnits="userSpaceOnUse" x1="2001.9509" y1="88.7789" x2="2045.6211" y2="126.4789" gradientTransform="matrix(-1 0 0 -1 2341.1699 502)">
	<stop offset="0" style="stop-color:#FFFFFF;stop-opacity:0"/>
	<stop offset="0.99" style="stop-color:#808080"/>
</linearGradient>
<polyline id="Character_1_Shadow_user-status-49" style="opacity:0.63;fill:url(#Character_1_Shadow_00000079478546058005939290000010054004416496072852_);enable-background:new    ;" points="&#10;&#9;250.9,378.5 324.4,421.5 366.9,395.7 306.8,360.6 "/>
<g id="Character_1_user-status-49">
	<path class="st0_user-status-49" d="M335,386.3c0,0-1.4-22.4-1.9-28c-0.5-5-2.1-27-15.9-34c-17.4-8.8-37.5-20.2-56-14.9c-15,4.3-20.1,56.3-20,59.8&#10;&#9;&#9;C241.5,375.5,288.1,408.4,335,386.3z"/>
	<path class="st1_user-status-49 targetColor" d="M299.4,327c0,1.2-1.4,3-1.9,4c-4.5,8.5-8.4,17.5-12.6,26.2c-4.2,8.5-4.9,32.3-5.4,33.9&#10;&#9;&#9;c0,0.2-17.1-6.2-17.2-6.1s-1.4-12.3-1.4-13.1c-0.2-13.6-1.2-20.5,1.3-31c1.8-7.4,5-12.5,6.7-19.9c0.8-3.5,1.4-7.8,3.1-11&#10;&#9;&#9;C274,306.3,299.4,319.1,299.4,327z" style="fill: rgb(108, 99, 255);"/>
	<path class="st9_user-status-49" d="M307.1,393.7c-0.5,0-0.9,0.1-1.4,0.1c0.1-9.4,0.2-18.7,0.1-28.1c0-0.9,0.7-1.5,1.5-1.5c0.8,0,1.5,0.7,1.5,1.5&#10;&#9;&#9;c0.1,9.3,0.1,18.6-0.1,27.9L307.1,393.7z"/>
	<path class="st9_user-status-49" d="M256.3,381.9L256.3,381.9c-0.1-0.1-0.2-0.1-0.3-0.1c-0.3-0.1-0.6-0.3-0.8-0.5l-1-0.5l-0.8-0.5&#10;&#9;&#9;c0-11.1,0.4-22.2,1-33.4c0.1-2,3.2-2,3.1,0c-0.7,11.4-1,22.9-1,34.4C256.4,381.6,256.4,381.8,256.3,381.9z"/>
	<path class="st0_user-status-49" d="M272,309.9c0,0-3.3,22.8-1.4,25.1l7.8-6.1l4.6,9.7l19.4-16.8L272,309.9z"/>
	<path class="st4_user-status-49" d="M268.6,274.9c0,0,0.1,14.5,0,20c-0.1,5.7,2.3,21.1,11.7,20.6s19-11.4,19-13.9c0,0,9.5-5.9,4.1-10.4&#10;&#9;&#9;s-5.8,3.1-5.8,3.1s-2.9-4.2-3.1-15.5C294.5,278.8,281.1,280.9,268.6,274.9z"/>
	<path class="st4_user-status-49" d="M298.8,316.7c-4.8,4.4-12.5,5.2-19.7,4.2c-1.1-0.1-2-0.9-2.2-2c-0.1-2.2-0.3-4.4-0.5-6.6l24.7-12.1l-1.9,15.8&#10;&#9;&#9;C299.3,316,299.1,316.2,298.8,316.7z"/>
	<path class="st5_user-status-49" d="M281.9,321.2c-1-0.1-1.9-0.2-2.9-0.3c-1.1-0.1-2-0.9-2.1-2c-0.1-1.1-0.1-2.3-0.2-3.4c5.2,0,14.5-1.2,19.5-10.9&#10;&#9;&#9;C294.9,312.3,289.4,318.7,281.9,321.2z"/>
	<path class="st3_user-status-49" d="M331,315.5c-8.8-9.7-13-28.9-13-28.9h-0.1c-2.5-21.1-17.5-27.5-30.7-28.2c-13.4-0.8-23.2,4.2-23.9,13.1&#10;&#9;&#9;s5.2,12.6,5.2,12.6s22.3,6.5,23.8,3.7s1.8-15.5,3.1,1.2c0.4,5.5,0.3,11,0.3,16.6c0,6.7,0.6,13.5,1.7,20.1c0.8,5,1.5,10.5,6.4,13.2&#10;&#9;&#9;c7.3,4.1,17.9,4.1,25.1-0.4c2.6,12.4,4.4,24.9,5.5,37.5c0,0,15.4-1,17.1-23.9S339.8,325.2,331,315.5z"/>
</g>
<g id="Notif_Character_1_user-status-49">
	
		<ellipse transform="matrix(0.9686 -0.2487 0.2487 0.9686 -57.9613 97.9904)" class="st5_user-status-49" cx="358.9" cy="278.4" rx="20.3" ry="25.4"/>
	<path class="st6_user-status-49" d="M357.1,265.3v23.6c0,0.8,0.7,1.5,1.5,1.5s1.5-0.7,1.5-1.5v-23.6c0-0.8-0.7-1.5-1.5-1.5&#10;&#9;&#9;S357.1,264.5,357.1,265.3z"/>
	<path class="st6_user-status-49" d="M348.5,273.5l16.3,9.3l2.3,1.3c0.7,0.4,1.6,0.2,2.1-0.5s0.2-1.6-0.5-2.1l-16.3-9.4l-2.3-1.3&#10;&#9;&#9;c-0.7-0.4-1.6-0.1-2,0.6C347.7,272.2,347.9,273,348.5,273.5z"/>
</g>
</svg>