<svg xmlns="http://www.w3.org/2000/svg" fill="none" viewBox="0 0 24 24" id="Waving-Hand--Streamline-Sharp.svg" height="24" width="24"><desc>Waving Hand Streamline Icon: https://streamlinehq.com</desc><g id="waving-hand"><path id="Vector" fill="#d7e0ff" d="m21.442 14.686 -0.015 -5.076 -1.03 -0.27c-1.161 -0.327 -2.361 0.377 -2.663 1.563l-0.648 2.55 -5.362 -9.442 -1.452 0.852a2.212 2.212 0 0 0 -0.789 2.993L7.43 4.24l-1.451 0.853a2.21 2.21 0 0 0 -0.79 2.99l-0.102 -0.178 -1.451 0.852c-1.031 0.605 -1.384 1.945 -0.79 2.993L8.668 22l7.684 -0.104 1.322 -0.777c2.271 -1.332 3.698 -3.768 3.77 -6.433Z" stroke-width="1.5"></path><path id="Vector_2" stroke="#4147d5" d="M16.642 7.442A4.443 4.443 0 0 0 13.5 2" stroke-width="1.5"></path><path id="Vector_3" stroke="#4147d5" d="M2.71 16.558A4.443 4.443 0 0 0 5.852 22" stroke-width="1.5"></path><path id="Vector_4" stroke="#4147d5" d="m17.086 13.453 0.648 -2.55c0.302 -1.186 1.502 -1.89 2.663 -1.562l1.03 0.269 0.015 5.076c-0.07 2.665 -1.498 5.1 -3.769 6.433l-1.322 0.777m0.735 -8.443 -0.519 0.304c-1.546 0.908 -2.076 2.918 -1.183 4.49l0.334 0.587m1.368 -5.381L11.724 4.01l-1.452 0.852a2.212 2.212 0 0 0 -0.789 2.993l2.579 4.54m-3.319 1.948L5.19 8.087c-0.595 -1.048 -0.242 -2.388 0.789 -2.993l1.451 -0.852 4.875 8.583m-3.318 1.948 -3.9 -6.867 -1.451 0.852c-1.031 0.605 -1.384 1.945 -0.79 2.993L8.668 22" stroke-width="1.5"></path><path id="Vector_5" stroke="#4147d5" d="M16.642 7.442A4.443 4.443 0 0 0 13.5 2" stroke-width="1.5"></path><path id="Vector_6" stroke="#4147d5" d="M2.71 16.558A4.443 4.443 0 0 0 5.852 22" stroke-width="1.5"></path></g></svg>